<?xml version="1.0" encoding="utf-8"?>
<!-- Generator: Adobe Illustrator 19.1.0, SVG Export Plug-In . SVG Version: 6.00 Build 0)  -->
<svg version="1.1" id="Layer_1" xmlns="http://www.w3.org/2000/svg" xmlns:xlink="http://www.w3.org/1999/xlink" x="0px" y="0px"
	 viewBox="0 0 20 20" style="enable-background:new 0 0 20 20;" xml:space="preserve">
<style type="text/css">
	.st0{fill:#97978F;}
</style>
<g transform="matrix( 0.903350830078125, 0, 0, 0.903350830078125, -2.25,-17) ">
	<g>
		<g id="Layer0_1_FILL">
			<path class="st0" d="M18.8,24l-0.3-0.3c-1.3-1.3-2.9-1.9-4.8-1.9c-1.9,0-3.5,0.6-4.8,1.9L8.6,24c-1.2,1.3-1.9,2.9-1.9,4.8
				c0,1.9,0.6,3.6,1.9,4.9l4.6,4.6c0.2,0.1,0.4,0.2,0.5,0.2c0.2,0,0.4-0.1,0.5-0.2l4.6-4.6c1.3-1.3,1.9-3,1.9-4.9S20,25.3,18.8,24
				 M17.6,24.6l0.2,0.2c1,1.1,1.5,2.4,1.5,3.9c0,1.6-0.5,2.9-1.5,3.9l-4.1,4.1l-4.1-4.1h0c-1-1-1.5-2.3-1.5-3.9
				c0-1.6,0.5-2.9,1.5-3.9l0.2-0.2c1.1-1.1,2.4-1.6,3.9-1.6C15.2,23,16.5,23.5,17.6,24.6 M17.7,28.9c0-1.2-0.4-2.1-1.2-2.9
				c-0.8-0.8-1.8-1.2-2.9-1.2c-1.1,0-2,0.4-2.9,1.2c-0.8,0.8-1.2,1.7-1.2,2.9s0.4,2.1,1.2,2.9c0.8,0.8,1.8,1.2,2.9,1.2
				c1.1,0,2.1-0.4,2.9-1.2C17.3,31,17.7,30,17.7,28.9 M16.4,28.9c0,0.8-0.3,1.4-0.8,1.9c-0.5,0.5-1.2,0.8-1.9,0.8
				c-0.7,0-1.4-0.3-2-0.8c-0.5-0.5-0.8-1.2-0.8-1.9c0-0.7,0.3-1.4,0.8-1.9c0.6-0.6,1.2-0.8,2-0.8s1.4,0.3,1.9,0.8
				C16.2,27.5,16.4,28.1,16.4,28.9z"/>
		</g>
	</g>
</g>
</svg>
