<?xml version="1.0" encoding="utf-8"?>
<!-- Generator: Adobe Illustrator 19.1.0, SVG Export Plug-In . SVG Version: 6.00 Build 0)  -->
<svg version="1.1" id="Layer_1" xmlns="http://www.w3.org/2000/svg" xmlns:xlink="http://www.w3.org/1999/xlink" x="0px" y="0px"
	 viewBox="0 0 80 80" style="enable-background:new 0 0 80 80;" xml:space="preserve">
<style type="text/css">
	.st0{clip-path:url(#SVGID_2_);fill:#FFFFFF;}
	.st1{clip-path:url(#SVGID_4_);fill:#FFFFFF;}
</style>
<g>
	<defs>
		<path id="SVGID_1_" d="M70,30.6v-4.3H55.5v4.3H56H70z M56.8,44c0-9.3-7.6-17.1-16.8-17.2c-9.5-0.1-17.4,7.5-17.4,16.9
			c-0.1,9.7,7.6,17.4,17.1,17.4C49.1,61.2,56.8,53.5,56.8,44z M73.3,25.2v37.6c-0.7,1.6-1.9,2.1-3.6,2.1c-20.2,0-40.3,0-60.5,0
			c-2,0-3.2-1.5-3.2-3.2C6,49.9,6,38,6,26.2c0-1.9,1.1-3,2.9-3c5.4,0,10.8,0,16.2,0H26c0.1-1.1,0.3-2.1,0.4-3.2
			c0.1-0.9,0.2-1.8,0.5-2.6c0.5-1.3,1.6-2,2.9-2.4h19.5c0.1,0,0.1,0.1,0.2,0.1c2,0.6,3,1.9,3.2,4c0.1,1.4,0.4,2.7,0.5,4.1h0.8
			c5.2,0,10.5,0,15.7,0C71.4,23.2,72.6,23.7,73.3,25.2z"/>
	</defs>
	<use xlink:href="#SVGID_1_"  style="overflow:visible;fill-rule:evenodd;clip-rule:evenodd;fill:#FFFFFF;"/>
	<clipPath id="SVGID_2_">
		<use xlink:href="#SVGID_1_"  style="overflow:visible;"/>
	</clipPath>
	<rect x="1" y="10" class="st0" width="77.3" height="59.9"/>
</g>
<g>
	<defs>
		<path id="SVGID_3_" d="M29.2,44c0-5.9,4.7-10.5,10.5-10.5c5.8,0,10.5,4.8,10.4,10.6c0,5.8-4.7,10.4-10.5,10.5
			C33.9,54.6,29.2,49.8,29.2,44"/>
	</defs>
	<use xlink:href="#SVGID_3_"  style="overflow:visible;fill-rule:evenodd;clip-rule:evenodd;fill:#FFFFFF;"/>
	<clipPath id="SVGID_4_">
		<use xlink:href="#SVGID_3_"  style="overflow:visible;"/>
	</clipPath>
	<rect x="24.2" y="28.5" class="st1" width="31" height="31.1"/>
</g>
</svg>
