<?xml version="1.0" encoding="utf-8"?>
<!-- Generator: Adobe Illustrator 19.1.0, SVG Export Plug-In . SVG Version: 6.00 Build 0)  -->
<svg version="1.1" id="Layer_1" xmlns="http://www.w3.org/2000/svg" xmlns:xlink="http://www.w3.org/1999/xlink" x="0px" y="0px"
	 viewBox="0 0 30 30" style="enable-background:new 0 0 30 30;" xml:space="preserve">
<style type="text/css">
	.st0{clip-path:url(#SVGID_2_);fill:#538CCA;}
</style>
<g>
	<defs>
		<path id="SVGID_1_" d="M11.1,13.4c-0.1-0.1-0.3-0.2-0.4-0.2c-0.2,0-0.3,0.1-0.4,0.2c-0.1,0.1-0.2,0.3-0.2,0.4
			c0,0.2,0.1,0.3,0.2,0.4l3,3c0.1,0.1,0.3,0.2,0.4,0.2c0.2,0,0.3-0.1,0.4-0.2l5.3-5.3c0.1-0.1,0.2-0.3,0.2-0.4
			c0-0.2-0.1-0.3-0.2-0.4c-0.1-0.1-0.3-0.2-0.4-0.2c-0.2,0-0.3,0.1-0.4,0.2L13.7,16L11.1,13.4 M7.2,13L7.2,13c0-2.2,0.8-4,2.3-5.5
			C11,6,12.8,5.2,15,5.2c2.1,0,3.9,0.8,5.5,2.3C22,9,22.7,10.8,22.7,13c0,2.1-0.8,4-2.3,5.5L15,23.9l-5.5-5.5
			C8,16.9,7.2,15.1,7.2,13 M8.6,6.6L8.6,6.6C6.9,8.4,6,10.5,6,13v0c0,2.5,0.9,4.6,2.6,6.3l6,5.9c0.1,0.1,0.3,0.2,0.4,0.2
			c0.2,0,0.3-0.1,0.4-0.2l5.9-5.9c1.8-1.8,2.7-3.9,2.6-6.4c0-2.5-0.9-4.6-2.6-6.3v0C19.6,4.9,17.5,4,15,4C12.5,4,10.4,4.9,8.6,6.6"
			/>
	</defs>
	<clipPath id="SVGID_2_">
		<use xlink:href="#SVGID_1_"  style="overflow:visible;"/>
	</clipPath>
	<rect x="1" y="-1" class="st0" width="28" height="31.4"/>
</g>
</svg>
