<?xml version="1.0" encoding="utf-8"?>
<!-- Generator: Adobe Illustrator 19.1.0, SVG Export Plug-In . SVG Version: 6.00 Build 0)  -->
<svg version="1.1" id="Layer_1" xmlns="http://www.w3.org/2000/svg" xmlns:xlink="http://www.w3.org/1999/xlink" x="0px" y="0px"
	 viewBox="20 -20 80 80" style="enable-background:new 20 -20 80 80;" xml:space="preserve">
<style type="text/css">
	.st0{fill:#282828;}
</style>
<g>
	<g>
		<path id="SVGID_1_" class="st0" d="M60,17.1l-7.9-7.9c-0.8-0.8-2.1-0.8-2.9,0c-0.8,0.8-0.8,2.1,0,2.9l7.9,7.9l-7.9,7.9
			c-0.8,0.8-0.8,2.1,0,2.9c0.8,0.8,2.1,0.8,2.9,0l7.9-7.9l7.9,7.9c0.8,0.8,2.1,0.8,2.9,0s0.8-2.1,0-2.9L62.9,20l7.9-7.9
			c0.8-0.8,0.8-2.1,0-2.9s-2.1-0.8-2.9,0L60,17.1z"/>
	</g>
</g>
</svg>
