<?xml version="1.0" encoding="utf-8"?>
<!-- Generator: Adobe Illustrator 19.1.0, SVG Export Plug-In . SVG Version: 6.00 Build 0)  -->
<svg version="1.1" id="Layer_1" xmlns="http://www.w3.org/2000/svg" xmlns:xlink="http://www.w3.org/1999/xlink" x="0px" y="0px"
	 viewBox="20 -20 80 80" style="enable-background:new 20 -20 80 80;" xml:space="preserve">
<style type="text/css">
	.st0{clip-path:url(#SVGID_2_);fill:#FFFFFF;}
</style>
<g>
	<g>
		<defs>
			<path id="SVGID_1_" d="M60,22.9l7.9,7.9c0.8,0.8,2.1,0.8,2.9,0c0.8-0.8,0.8-2.1,0-2.9L62.9,20l7.9-7.9c0.8-0.8,0.8-2.1,0-2.9
				c-0.8-0.8-2.1-0.8-2.9,0L60,17.1l-7.9-7.9c-0.8-0.8-2.1-0.8-2.9,0c-0.8,0.8-0.8,2.1,0,2.9l7.9,7.9l-7.9,7.9
				c-0.8,0.8-0.8,2.1,0,2.9s2.1,0.8,2.9,0L60,22.9z"/>
		</defs>
		<clipPath id="SVGID_2_">
			<use xlink:href="#SVGID_1_"  style="overflow:visible;"/>
		</clipPath>
		<rect x="39.8" y="-0.2" class="st0" width="40.4" height="40.4"/>
	</g>
</g>
</svg>
