<?xml version="1.0" encoding="utf-8"?>
<!-- Generator: Adobe Illustrator 19.1.0, SVG Export Plug-In . SVG Version: 6.00 Build 0)  -->
<svg version="1.1" id="Layer_1" xmlns="http://www.w3.org/2000/svg" xmlns:xlink="http://www.w3.org/1999/xlink" x="0px" y="0px"
	 viewBox="0 0 40 40" style="enable-background:new 0 0 40 40;" xml:space="preserve">
<style type="text/css">
	.st0{clip-path:url(#SVGID_2_);fill:#538CCA;}
	.st1{fill:#538CCA;}
</style>
<g>
	<defs>
		<path id="SVGID_1_" d="M14.5,31.4c0.5-1.1,0.8-2.1,1.2-3c0.5-1.3,0.8-1.5,2.3-1.5c4.7,0,9.4,0,14.1,0c2.1,0,3.2-1,3.2-3.2
			c0-2.5,0-5.1,0-7.6c0-1.9,0-3.9,0-5.8c0-1.3-1.1-2.3-2.4-2.5c-0.4,0-0.8-0.1-1.2-0.1c-4.9,0-9.8,0-14.7,0c-3,0-6,0-9,0
			c-2.2,0-3.2,1.1-3.2,3.2c0,4.3,0,8.6,0,12.8c0,2.1,1.1,3.1,3.2,3.1c1.1,0,2.3,0,3.4,0c0.9,0,1.5,0.4,1.8,1.2
			C13.5,29.1,14,30.2,14.5,31.4z M38.1,9.9v14.9c0,0.1-0.1,0.1-0.1,0.2c-0.3,2.5-2.6,4.7-5.9,4.7c-4.4-0.1-8.8,0-13.2,0
			c-0.5,0-0.7,0.1-0.9,0.6c-0.6,1.7-1.3,3.3-2,5c-0.1,0.3-0.2,0.6-0.4,0.8c-0.8,0.8-1.9,0.5-2.4-0.6c-0.7-1.7-1.4-3.5-2.1-5.2
			c-0.1-0.4-0.3-0.5-0.8-0.5c-0.9,0-1.8,0-2.7,0c-1.9,0-3.5-0.8-4.5-2.4c-0.5-0.7-0.7-1.6-1-2.5V9.9c0-0.1,0.1-0.2,0.1-0.3
			C2.7,6.9,4.8,5,7.5,5c8.4,0,16.7,0,25.1,0c1.3,0,2.5,0.5,3.5,1.3C37.2,7.3,37.7,8.5,38.1,9.9z"/>
	</defs>
	<clipPath id="SVGID_2_">
		<use xlink:href="#SVGID_1_"  style="overflow:visible;"/>
	</clipPath>
	<rect x="-3" class="st0" width="46.1" height="41.4"/>
</g>
<g>
	<circle class="st1" cx="20" cy="17.3" r="2"/>
	<circle class="st1" cx="28" cy="17.3" r="2"/>
	<circle class="st1" cx="12" cy="17.3" r="2"/>
</g>
</svg>
