
<svg xmlns="http://www.w3.org/2000/svg" version="1.1" xmlns:xlink="http://www.w3.org/1999/xlink" preserveAspectRatio="none" x="0px" y="0px" width="80px" height="80px" viewBox="0 0 80 80">
<defs>
<g id="Layer0_0_FILL">
<path fill="#FF6666" stroke="none" d="
M 80 40
Q 80 33.45 78.15 27.65
L 78.15 27.6
Q 75.8 20.2 70.45 14.05 69.4 12.85 68.25 11.7 56.6 0 40 0 23.45 0 11.7 11.7 10.55 12.85 9.55 14.05 4.2 20.2 1.85 27.6 0 33.4 0 39.95
L 0 40
Q 0 56.55 11.7 68.25 13.95 70.5 16.4 72.35 26.65 80 40 80 53.35 80 63.5 72.4 65.95 70.55 68.25 68.25 69.4 67.1 70.45 65.9 80 54.9 80 40 Z"/>
</g>

<g id="Layer0_1_FILL">
<path fill="#FFCC00" stroke="none" d="
M 74.45 203.75
L 89 198.95 50.85 186.6 74.45 203.75
M 88.95 214.3
L 89 198.95 65.4 231.35 88.95 214.3
M 103.55 203.75
L 89 198.95 112.5 231.4 103.55 203.75
M 89 159
L 80 186.6 89 198.95 89 159
M 127.15 186.65
L 127.15 186.6 97.95 186.6 89 198.95 127.15 186.65 Z"/>

<path fill="#FFFF00" stroke="none" d="
M 65.45 231.25
L 65.4 231.35 89 198.95 74.45 203.75 65.45 231.25
M 112.5 231.4
L 89 198.95 88.95 214.3 112.5 231.4
M 89 198.95
L 103.55 203.75 127.15 186.65 89 198.95
M 97.95 186.6
L 89 159 89 198.95 97.95 186.6
M 80 186.6
L 50.85 186.6 89 198.95 80 186.6 Z"/>
</g>
</defs>

<g transform="matrix( 1, 0, 0, 1, 0,0) ">
<use xlink:href="#Layer0_0_FILL"/>
</g>

<g transform="matrix( 1, 0, 0, 1, -49,-159) ">
<use xlink:href="#Layer0_1_FILL"/>
</g>
</svg>
