
<svg xmlns="http://www.w3.org/2000/svg" version="1.1" xmlns:xlink="http://www.w3.org/1999/xlink" preserveAspectRatio="none" x="0px" y="0px" width="80px" height="80px" viewBox="0 0 80 80">
<defs>
<g id="Layer0_0_FILL">
<path fill="#00CCFF" stroke="none" d="
M 41.85 1.45
Q 41.75 0.95 41.4 0.55 40.85 0 40.2 0 40.1 0 40 0 39.85 0 39.75 0
L 39.65 0
Q 39.55 0 39.45 0.05 39 0.15 38.65 0.55 38.25 0.95 38.15 1.45
L 30.05 26.25 3.65 26.25
Q 3.55 26.25 3.4 26.3 3.2 26.3 3.1 26.35
L 2.6 26.6
Q 2.45 26.7 2.35 26.85 2 27.1 1.9 27.5
L 1.75 27.95 1.75 28
Q 1.75 28.05 1.75 28.15
L 1.75 28.2
Q 1.75 28.35 1.8 28.5 1.85 29.05 2.35 29.55 2.5 29.7 2.65 29.85
L 23.9 45.25 15.85 69.9
Q 15.65 70.25 15.65 70.7
L 15.65 70.8
Q 15.65 71.5 16.15 72.05 16.65 72.6 17.35 72.7 18.05 72.75 18.65 72.35
L 39.95 56.95 61.25 72.35 61.3 72.4
Q 61.65 72.65 62.1 72.75 62.2 72.75 62.35 72.75
L 62.75 72.75
Q 63.2 72.65 63.55 72.4
L 63.65 72.25
Q 63.8 72.1 63.95 72 64 71.9 64.05 71.8 64.2 71.5 64.3 71.15 64.3 71 64.3 70.9 64.3 70.7 64.3 70.55 64.25 70.4 64.2 70.25
L 64.2 70.2 56.1 45.25 77.5 29.8
Q 77.8 29.5 78.05 29.05 78.25 28.7 78.25 28.2
L 78.25 28.15
Q 78.25 27.35 77.7 26.85 77.15 26.25 76.4 26.25
L 49.9 26.25 41.85 1.45
M 52.45 33.95
L 51.15 30.05 64.25 30.05 52.45 33.95
M 45.9 26.25
L 41.9 26.25 41.9 13.95 45.9 26.25
M 41.9 30.05
L 47.15 30.05 49.4 36.9 49.4 36.95
Q 49.45 37 49.45 37.05
L 51.65 43.8 47.4 46.9 41.9 39.3 41.9 30.05
M 54.85 41.45
L 53.65 37.55 65.65 33.6 54.85 41.45
M 38.1 26.25
L 34.05 26.25 38.1 13.9 38.1 26.25
M 32.8 30.05
L 38.1 30.05 38.1 39.95
Q 38.1 40.55 38.5 41.05
L 44.3 49.05 39.95 52.2 34.4 48.15
Q 34.3 48 34.2 48
L 34.15 47.95 28.4 43.8 30.6 37.05
Q 30.6 37 30.65 36.95
L 30.65 36.9 32.8 30.05
M 28.8 30.05
L 27.65 33.95 15.75 30.05 28.8 30.05
M 26.45 37.55
L 25.15 41.4 14.5 33.7 26.45 37.55
M 33.5 52.15
L 36.7 54.55 26.15 62.2 33.5 52.15
M 30.4 49.95
L 23.15 59.9 27.15 47.6 30.4 49.95
M 43.25 54.55
L 46.55 52.15 53.85 62.25 43.25 54.55
M 56.85 59.95
L 49.65 49.95 52.85 47.6 56.85 59.95 Z"/>
</g>
</defs>

<g transform="matrix( 1, 0, 0, 1, 0,0) ">
<use xlink:href="#Layer0_0_FILL"/>
</g>
</svg>
