
<svg xmlns="http://www.w3.org/2000/svg" version="1.1" xmlns:xlink="http://www.w3.org/1999/xlink" preserveAspectRatio="none" x="0px" y="0px" width="80px" height="80px" viewBox="0 0 80 80">
<defs>
<g id="Layer0_0_FILL">
<path fill="#00CCFF" stroke="none" d="
M 71.9 15.8
Q 71.35 15.25 70.55 15.25
L 9.55 15.25
Q 8.7 15.25 8.2 15.8 7.6 16.35 7.6 17.15
L 7.6 62.9
Q 7.6 63.7 8.2 64.3 8.7 64.8 9.55 64.8
L 70.55 64.8
Q 71.35 64.8 71.9 64.3 72.45 63.7 72.45 62.9
L 72.45 17.15
Q 72.45 16.35 71.9 15.8
M 45.35 45.65
Q 45.8 45.35 46.05 44.8 46.25 44.3 46.2 43.75
L 42.25 19.05 68.6 19.05 68.6 61 41.9 61 41.9 56.4 51.55 54.55
Q 52.35 54.35 52.75 53.65 53.2 53 53.05 52.3 52.9 51.5 52.25 51.05 51.55 50.6 50.85 50.75
L 41.9 52.5 41.9 45.95 44.3 45.95
Q 44.85 45.95 45.35 45.65
M 40 42.15
Q 39.2 42.15 38.65 42.7 38.1 43.25 38.1 44.05
L 38.1 52.5 29.45 50.75
Q 28.6 50.6 28 51.05 27.35 51.5 27.2 52.3 27.05 53.05 27.5 53.7 27.9 54.35 28.7 54.55
L 38.1 56.35 38.1 61 11.45 61 11.45 19.05 38.4 19.05 42.05 42.15 40 42.15
M 25.35 28.45
Q 24.75 28.95 24.75 29.75
L 24.75 39.3
Q 24.75 40.1 25.35 40.65 25.85 41.2 26.65 41.2 27.5 41.2 28.05 40.65 28.55 40.1 28.55 39.3
L 28.55 29.75
Q 28.55 28.95 28.05 28.45 27.5 27.85 26.65 27.85 25.85 27.85 25.35 28.45
M 53.55 27.85
Q 52.75 27.85 52.25 28.45 51.65 28.95 51.65 29.75
L 51.65 39.3
Q 51.65 40.1 52.25 40.65 52.75 41.2 53.55 41.2 54.4 41.2 54.95 40.65 55.5 40.1 55.5 39.3
L 55.5 29.75
Q 55.5 28.95 54.95 28.45 54.4 27.85 53.55 27.85 Z"/>
</g>
</defs>

<g transform="matrix( 1, 0, 0, 1, 0,0) ">
<use xlink:href="#Layer0_0_FILL"/>
</g>
</svg>
