<?xml version="1.0" encoding="utf-8"?>
<!-- Generator: Adobe Illustrator 19.1.0, SVG Export Plug-In . SVG Version: 6.00 Build 0)  -->
<svg version="1.1" id="Layer_1" xmlns="http://www.w3.org/2000/svg" xmlns:xlink="http://www.w3.org/1999/xlink" x="0px" y="0px"
	 viewBox="0 0 30 30" style="enable-background:new 0 0 30 30;" xml:space="preserve">
<style type="text/css">
	.st0{fill:none;stroke:#538CCA;stroke-width:1.3;stroke-linecap:round;stroke-linejoin:round;stroke-miterlimit:10;}
</style>
<path class="st0" d="M6.6,13.1c-0.5-0.6-0.7-1.3-0.7-2.1c0-0.7,0.2-1.4,0.7-1.9 M23.9,16.1l0.9-0.9 M4.4,15.2
	c-0.9-1.1-1.4-2.5-1.4-4c0-1.7,0.6-3.2,1.8-4.4S7.5,5,9.2,5s3.2,0.6,4.4,1.8c0.4,0.4,0.8,0.9,1,1.3c0.3-0.5,0.6-0.9,1-1.3
	C16.8,5.6,18.3,5,20,5c1.7,0,3.2,0.6,4.4,1.8s1.8,2.7,1.8,4.4c0,1.5-0.5,2.8-1.4,4c-0.1,0.1-0.3,0.3-0.4,0.4
	c-0.1,0.1-0.3,0.3-0.4,0.4l-9.3,9.3l-9.4-9.3c-0.1-0.1-0.3-0.3-0.4-0.4C4.7,15.5,4.5,15.3,4.4,15.2l0.9,0.9"/>
</svg>
