<?xml version="1.0" encoding="utf-8"?>
<!-- Generator: Adobe Illustrator 19.1.0, SVG Export Plug-In . SVG Version: 6.00 Build 0)  -->
<svg version="1.1" id="Layer_1" xmlns="http://www.w3.org/2000/svg" xmlns:xlink="http://www.w3.org/1999/xlink" x="0px" y="0px"
	 viewBox="0 0 40 40" style="enable-background:new 0 0 40 40;" xml:space="preserve">
<style type="text/css">
	.st0{fill:none;stroke:#538CCA;stroke-width:3;stroke-linecap:round;stroke-linejoin:round;stroke-miterlimit:10;}
</style>
<path class="st0" d="M9.2,17.8c-0.7-0.9-1.1-1.8-1.1-3c0-1.1,0.3-2,1-2.8 M34.4,22.1l1.2-1.3 M6,20.8c-1.4-1.7-2-3.6-2-5.8
	c0-2.5,0.9-4.6,2.7-6.4C8.4,6.9,10.5,6,13,6s4.6,0.9,6.4,2.7c0.6,0.6,1.1,1.2,1.5,1.9c0.4-0.7,0.9-1.3,1.5-1.9
	C24.1,6.9,26.2,6,28.7,6c2.5,0,4.6,0.9,6.4,2.7c1.8,1.8,2.7,3.9,2.7,6.4c0,2.2-0.7,4.1-2,5.8c-0.2,0.2-0.4,0.4-0.6,0.6
	c-0.2,0.2-0.4,0.4-0.6,0.6L21,35.6L7.3,22.1c-0.2-0.2-0.4-0.4-0.6-0.6C6.4,21.3,6.2,21,6,20.8l1.2,1.3"/>
</svg>
