<?xml version="1.0" encoding="utf-8"?>
<!-- Generator: Adobe Illustrator 19.1.0, SVG Export Plug-In . SVG Version: 6.00 Build 0)  -->
<svg version="1.1" id="Layer_1" xmlns="http://www.w3.org/2000/svg" xmlns:xlink="http://www.w3.org/1999/xlink" x="0px" y="0px"
	 viewBox="0 0 40 40" style="enable-background:new 0 0 40 40;" xml:space="preserve">
<style type="text/css">
	.st0{clip-path:url(#SVGID_2_);fill:#282828;}
	.st1{clip-path:url(#SVGID_4_);fill:#282828;}
</style>
<g>
	<defs>
		<path id="SVGID_1_" d="M11.2,33.6c0-6.2,0-12.1,0-18c0-0.3-0.1-0.7-0.4-0.9c-1.5-0.9-3-1.8-4.7-2.9c0,6.2,0,12.2,0,18.2
			c0,0.2,0.2,0.6,0.4,0.7C8,31.7,9.5,32.6,11.2,33.6z M18.1,11.9c-1.4,0.9-2.6,1.6-3.9,2.3c-0.9,0.5-1.2,1-1.2,2.1
			c0.1,5.4,0,10.8,0,16.2c0,0.3,0,0.6,0.1,1.1c1.5-0.9,2.8-1.7,4.2-2.5c0.7-0.4,0.8-0.8,0.8-1.5c0-2.8,0-5.5,0-8.3
			C18.2,18.2,18.1,15.2,18.1,11.9z M25.2,33.6V19.2c1.2,1.2,2,2.1,2,3.8c-0.1,3.4,0,6.9,0,10.6c1.7-1,3.3-1.9,4.8-2.9
			c0.3-0.2,0.3-0.7,0.3-1.1c0-2.1,0.1-4.2,0-6.3c-0.1-1.7,0.6-2.8,1.9-4v5.2c0,2,0,4,0,6c0,0.8-0.2,1.3-0.9,1.7c-2,1.2-4,2.4-6,3.6
			c-0.8,0.5-1.4,0.4-2.1,0c-1.6-1-3.3-1.9-4.9-3c-0.8-0.5-1.3-0.4-2.1,0c-1.6,1-3.3,2-4.9,3c-0.7,0.4-1.3,0.5-2,0
			c-2-1.3-4.1-2.4-6.1-3.7c-0.4-0.3-0.8-1-0.8-1.5c-0.1-6.5,0-13.1,0-19.6c0-1.7,0.6-2.1,2.1-1.2c1.6,1,3.3,1.9,4.8,2.9
			c0.7,0.5,1.3,0.5,2.1,0c1.6-1,3.2-1.9,4.8-2.9c1.6-0.9,3.3-0.1,3.6,1.8c0,0.3,0.1,0.7,0.2,1.1c-0.5-0.3-1-0.5-1.5-0.7
			c0,0.5-0.1,0.8-0.1,1.2c0,5.4,0,10.7,0,16.1c0,0.9,0.2,1.5,1.1,1.9C22.4,31.9,23.6,32.7,25.2,33.6z"/>
	</defs>
	<use xlink:href="#SVGID_1_"  style="overflow:visible;fill-rule:evenodd;clip-rule:evenodd;fill:#282828;"/>
	<clipPath id="SVGID_2_">
		<use xlink:href="#SVGID_1_"  style="overflow:visible;"/>
	</clipPath>
	<rect x="-0.9" y="4.3" class="st0" width="40" height="36.8"/>
</g>
<g>
	<defs>
		<path id="SVGID_3_" d="M29.5,13.9c1.7,0,3.2-1.3,3.2-3.1c0-1.8-1.4-3.3-3.2-3.3c-1.7,0-3.2,1.4-3.2,3.2
			C26.3,12.4,27.7,13.9,29.5,13.9z M29.5,21.5c-2.3-2.6-4.4-5.1-5.8-8.1c-1.1-2.4-0.8-4.8,0.9-6.8c1.8-2,4.1-2.6,6.6-1.9
			c2.6,0.7,4.2,2.5,4.5,5.2c0.1,1.1-0.1,2.4-0.5,3.5C34,16.4,31.8,18.9,29.5,21.5z"/>
	</defs>
	<use xlink:href="#SVGID_3_"  style="overflow:visible;fill-rule:evenodd;clip-rule:evenodd;fill:#282828;"/>
	<clipPath id="SVGID_4_">
		<use xlink:href="#SVGID_3_"  style="overflow:visible;"/>
	</clipPath>
	<rect x="18.1" y="-0.7" class="st1" width="22.7" height="27.1"/>
</g>
</svg>
