<?xml version="1.0" encoding="utf-8"?>
<!-- Generator: Adobe Illustrator 19.1.0, SVG Export Plug-In . SVG Version: 6.00 Build 0)  -->
<svg version="1.1" id="Layer_1" xmlns="http://www.w3.org/2000/svg" xmlns:xlink="http://www.w3.org/1999/xlink" x="0px" y="0px"
	 viewBox="0 0 30 30" style="enable-background:new 0 0 30 30;" xml:space="preserve">
<style type="text/css">
	.st0{clip-path:url(#SVGID_2_);fill:#538CCA;}
	.st1{clip-path:url(#SVGID_4_);fill:#538CCA;}
</style>
<g>
	<defs>
		<path id="SVGID_1_" d="M8.3,25.2c0-4.7,0-9.1,0-13.5c0-0.2-0.1-0.5-0.3-0.6c-1.1-0.7-2.3-1.4-3.5-2.1c0,4.7,0,9.2,0,13.7
			c0,0.2,0.1,0.4,0.3,0.5C5.9,23.8,7,24.5,8.3,25.2z M13.5,8.9c-1.1,0.6-2,1.2-2.9,1.7c-0.7,0.3-0.9,0.8-0.9,1.6c0,4.1,0,8.1,0,12.2
			c0,0.2,0,0.5,0,0.8c1.1-0.7,2.1-1.3,3.2-1.9c0.5-0.3,0.6-0.6,0.6-1.2c0-2.1,0-4.2,0-6.2C13.5,13.7,13.5,11.4,13.5,8.9z M18.8,25.2
			V14.4c0.9,0.9,1.5,1.6,1.5,2.8c-0.1,2.6,0,5.2,0,8c1.3-0.8,2.5-1.4,3.6-2.2c0.2-0.1,0.2-0.6,0.2-0.9c0-1.6,0.1-3.1,0-4.7
			c-0.1-1.3,0.5-2.1,1.4-3v3.9c0,1.5,0,3,0,4.5c0,0.6-0.2,0.9-0.7,1.2c-1.5,0.9-3,1.8-4.5,2.7c-0.6,0.4-1,0.3-1.6,0
			c-1.2-0.8-2.5-1.4-3.7-2.2c-0.6-0.4-1-0.3-1.5,0c-1.2,0.8-2.5,1.5-3.7,2.2c-0.5,0.3-1,0.3-1.5,0c-1.5-0.9-3.1-1.8-4.6-2.8
			C3.3,23.8,3,23.3,3,22.9C3,18,3,13.1,3,8.2c0-1.3,0.4-1.5,1.6-0.9C5.8,8.1,7,8.8,8.2,9.5c0.6,0.4,1,0.4,1.5,0
			c1.2-0.8,2.4-1.5,3.6-2.2c1.2-0.7,2.5,0,2.7,1.3c0,0.2,0.1,0.5,0.1,0.8C15.8,9.4,15.4,9.2,15,9c0,0.3-0.1,0.6-0.1,0.9
			c0,4,0,8.1,0,12.1c0,0.7,0.2,1.1,0.8,1.5C16.7,23.9,17.6,24.5,18.8,25.2z"/>
	</defs>
	<clipPath id="SVGID_2_">
		<use xlink:href="#SVGID_1_"  style="overflow:visible;"/>
	</clipPath>
	<rect x="-2" y="2" class="st0" width="32.5" height="30.1"/>
</g>
<g>
	<defs>
		<path id="SVGID_3_" d="M21.7,10.2c1.3,0,2.4-1,2.4-2.3c0-1.4-1-2.5-2.4-2.5c-1.3,0-2.4,1.1-2.4,2.4C19.4,9.1,20.5,10.2,21.7,10.2z
			 M21.8,15.8c-1.7-1.9-3.3-3.8-4.3-6.1c-0.8-1.8-0.6-3.6,0.7-5.1c1.3-1.5,3-2,4.9-1.4c1.9,0.5,3.1,1.9,3.4,3.9
			c0.1,0.8-0.1,1.8-0.4,2.6C25.2,12,23.5,13.9,21.8,15.8z"/>
	</defs>
	<clipPath id="SVGID_4_">
		<use xlink:href="#SVGID_3_"  style="overflow:visible;"/>
	</clipPath>
	<rect x="12" y="-2" class="st1" width="19.5" height="22.8"/>
</g>
</svg>
