<?xml version="1.0" encoding="utf-8"?>
<!-- Generator: Adobe Illustrator 19.1.0, SVG Export Plug-In . SVG Version: 6.00 Build 0)  -->
<svg version="1.1" id="Layer_1" xmlns="http://www.w3.org/2000/svg" xmlns:xlink="http://www.w3.org/1999/xlink" x="0px" y="0px"
	 viewBox="0 0 60 60" style="enable-background:new 0 0 60 60;" xml:space="preserve">
<style type="text/css">
	.st0{clip-path:url(#SVGID_2_);fill:#FFFFFF;}
	.st1{clip-path:url(#SVGID_4_);fill:#538CCA;}
	.st2{clip-path:url(#SVGID_6_);fill:#538CCA;}
</style>
<g>
	<defs>
		<circle id="SVGID_1_" cx="30" cy="30" r="30"/>
	</defs>
	<clipPath id="SVGID_2_">
		<use xlink:href="#SVGID_1_"  style="overflow:visible;"/>
	</clipPath>
	<rect x="-5" y="-5" class="st0" width="70" height="70"/>
</g>
<g>
	<defs>
		<path id="SVGID_3_" d="M30,38.2c4.5,0,8.2-3.7,8.2-8.2c0-4.5-3.7-8.2-8.2-8.2c-4.5,0-8.2,3.7-8.2,8.2C21.8,34.5,25.5,38.2,30,38.2
			z M28.6,41c-5.3-1.1-8.5-4.2-9.6-9.6c-0.8,0-1.7,0-2.6,0c-0.8,0-1.3-0.6-1.4-1.3c-0.1-0.7,0.5-1.4,1.2-1.5c0.3-0.1,0.7,0,1,0
			c0.5,0,1.1,0,1.6,0c0.2,0,0.3-0.1,0.3-0.3c0.7-4.6,4.3-8.3,8.9-9.1c0.6-0.1,0.6-0.1,0.6-0.7c0-0.7,0-1.3,0-2
			c0-0.8,0.6-1.5,1.4-1.5c0.8,0,1.4,0.6,1.4,1.5c0,0.8,0,1.6,0,2.3c0,0.2,0.1,0.3,0.3,0.3c4.5,0.7,8.3,4.3,9.1,8.8
			c0.1,0.7,0.1,0.7,0.8,0.7c0.6,0,1.2,0,1.9,0c0.8,0,1.4,0.6,1.4,1.4c0,0.8-0.6,1.4-1.4,1.4c-0.8,0-1.6,0-2.3,0
			c-0.2,0-0.3,0.1-0.3,0.3c-0.6,4.5-4.3,8.3-8.8,9.1c-0.2,0-0.5,0.1-0.7,0.1c0,0.9,0,1.7,0,2.5c0,0.9-0.6,1.5-1.4,1.5
			c-0.8,0-1.4-0.6-1.4-1.5C28.6,42.7,28.6,41.8,28.6,41z"/>
	</defs>
	<clipPath id="SVGID_4_">
		<use xlink:href="#SVGID_3_"  style="overflow:visible;"/>
	</clipPath>
	<rect x="10" y="10" class="st1" width="40" height="40"/>
</g>
<g>
	<defs>
		<path id="SVGID_5_" d="M30,34.8c-2.6,0-4.8-2.1-4.8-4.7c0-2.5,2.1-4.7,4.5-4.8c2.8-0.1,5,2.2,5,4.8C34.7,32.6,32.7,34.7,30,34.8"
			/>
	</defs>
	<clipPath id="SVGID_6_">
		<use xlink:href="#SVGID_5_"  style="overflow:visible;"/>
	</clipPath>
	<rect x="20.2" y="20.2" class="st2" width="19.5" height="19.5"/>
</g>
</svg>
