
<svg xmlns="http://www.w3.org/2000/svg" version="1.1" xmlns:xlink="http://www.w3.org/1999/xlink" preserveAspectRatio="none" x="0px" y="0px" width="80px" height="80px" viewBox="0 0 80 80">
<defs>
<g id="Layer0_0_FILL">
<path fill="#00CCFF" stroke="none" d="
M 17.55 54
Q 16.7 54 16.15 54.6 15.55 55.15 15.55 56 15.55 56.85 16.15 57.45 16.7 58 17.55 58
L 74.55 58
Q 75.4 58 76 57.45 76.55 56.85 76.55 56 76.55 55.15 76 54.6 75.4 54 74.55 54
L 17.55 54
M 31 70
Q 30.15 70 29.6 70.6 29 71.15 29 72 29 72.85 29.6 73.45 30.15 74 31 74
L 74.55 74
Q 75.4 74 76 73.45 76.55 72.85 76.55 72 76.55 71.15 76 70.6 75.4 70 74.55 70
L 31 70
M 76 38.6
Q 75.4 38 74.55 38
L 14 38
Q 13.15 38 12.6 38.6 12 39.15 12 40 12 40.85 12.6 41.45 13.15 42 14 42
L 74.55 42
Q 75.4 42 76 41.45 76.55 40.85 76.55 40 76.55 39.15 76 38.6
M 76 6.6
Q 75.4 6 74.55 6
L 28.9 6
Q 28.05 6 27.5 6.6 26.9 7.15 26.9 8 26.9 8.85 27.5 9.45 28.05 10 28.9 10
L 74.55 10
Q 75.4 10 76 9.45 76.55 8.85 76.55 8 76.55 7.15 76 6.6
M 76.55 24
Q 76.55 23.15 76 22.6 75.4 22 74.55 22
L 16.9 22
Q 16.05 22 15.5 22.6 14.9 23.15 14.9 24 14.9 24.85 15.5 25.45 16.05 26 16.9 26
L 74.55 26
Q 75.4 26 76 25.45 76.55 24.85 76.55 24 Z"/>
</g>
</defs>

<g transform="matrix( 1, 0, 0, 1, 0,0) ">
<use xlink:href="#Layer0_0_FILL"/>
</g>
</svg>
