<?xml version="1.0" encoding="utf-8"?>
<!-- Generator: Adobe Illustrator 19.1.0, SVG Export Plug-In . SVG Version: 6.00 Build 0)  -->
<svg version="1.1" id="Layer_1" xmlns="http://www.w3.org/2000/svg" xmlns:xlink="http://www.w3.org/1999/xlink" x="0px" y="0px"
	 viewBox="0 0 80 80" style="enable-background:new 0 0 80 80;" xml:space="preserve">
<style type="text/css">
	.st0{clip-path:url(#SVGID_2_);fill:#FFFFFF;}
	.st1{clip-path:url(#SVGID_4_);fill:#FFFFFF;}
</style>
<g>
	<defs>
		<path id="SVGID_1_" d="M65.4,53v8.6h4.2V53H65.4z M13.6,61.6V53H9.4v8.6H13.6z M69.6,44.3v-8.6h-4.2v8.6H69.6z M9.3,44.3h4.3v-8.6
			H9.3V44.3z M65.4,27h4.2v-8.6h-4.2V27z M9.4,18.4v8.6h4.2v-8.6H9.4z M18,18.4v43.2h43V18.4H18z M5,66V14h69v52H5z"/>
	</defs>
	<clipPath id="SVGID_2_">
		<use xlink:href="#SVGID_1_"  style="overflow:visible;"/>
	</clipPath>
	<rect y="9" class="st0" width="79" height="62"/>
</g>
<g>
	<defs>
		<path id="SVGID_3_" d="M27,53V27c8.6,4.3,17.1,8.6,25.8,13C44.2,44.3,35.6,48.6,27,53"/>
	</defs>
	<clipPath id="SVGID_4_">
		<use xlink:href="#SVGID_3_"  style="overflow:visible;"/>
	</clipPath>
	<rect x="22" y="22" class="st1" width="35.8" height="36"/>
</g>
</svg>
