<?xml version="1.0" encoding="utf-8"?>
<!-- Generator: Adobe Illustrator 19.1.0, SVG Export Plug-In . SVG Version: 6.00 Build 0)  -->
<svg version="1.1" id="Layer_1" xmlns="http://www.w3.org/2000/svg" xmlns:xlink="http://www.w3.org/1999/xlink" x="0px" y="0px"
	 viewBox="0 0 40 40" style="enable-background:new 0 0 40 40;" xml:space="preserve">
<style type="text/css">
	.st0{clip-path:url(#SVGID_2_);fill:#282829;}
	.st1{clip-path:url(#SVGID_4_);fill:#282829;}
</style>
<g>
	<defs>
		<path id="SVGID_1_" d="M23.8,13c0-0.5-0.3-0.9-0.7-1.1c-0.5-0.2-0.9,0-1.3,0.4c-2.4,2.4-4.9,4.9-7.3,7.3c-1,1-2,2-3,3
			c-0.3,0.3-0.5,0.6-0.4,1.1c0.1,0.4,0.3,0.7,0.8,0.9c0.4,0.1,0.8,0,1.1-0.3c1.2-1.2,2.5-2.5,3.7-3.7c2.2-2.2,4.4-4.4,6.6-6.6
			C23.6,13.7,23.8,13.4,23.8,13z M28.4,17.4c0-0.1,0-0.2,0-0.3c-0.3-0.9-1.3-1.1-1.9-0.4c-2.5,2.5-5,5-7.4,7.4c-1,1-1.9,1.9-2.9,2.9
			c-0.3,0.3-0.5,0.7-0.4,1.1c0.1,0.4,0.4,0.7,0.8,0.8c0.5,0.1,0.8,0,1.1-0.4c1.8-1.8,3.6-3.6,5.4-5.4c1.6-1.6,3.3-3.3,4.9-4.9
			C28.2,18.1,28.4,17.8,28.4,17.4z M7.6,24.5c-0.1,0.2-0.2,0.3-0.2,0.5c-0.8,1.9-1.1,4-1.5,6.1c0,0.1,0.1,0.2,0.1,0.3
			c0.9,0.9,1.8,1.8,2.8,2.8c0.1,0.1,0.3,0.1,0.4,0.1c0.5-0.1,1.1-0.2,1.6-0.2c1.5-0.3,3-0.5,4.4-1.2c0.2-0.1,0.4-0.2,0.5-0.3
			C13,29.9,10.3,27.2,7.6,24.5z M2.3,36.5c0.2-0.8,0.3-1.7,0.5-2.5c0.5-2.7,0.9-5.5,1.7-8.2c0.4-1.2,0.9-2.4,1.6-3.5
			c0.3-0.4,0.6-0.9,1-1.2c4.6-4.7,9.3-9.3,14-14c0.4-0.4,0.8-0.6,1.3-0.4c0.2,0.1,0.4,0.2,0.5,0.3c3.4,3.4,6.8,6.8,10.3,10.2
			c0.5,0.5,0.5,1.2,0,1.7c-4.8,4.8-9.6,9.6-14.4,14.4c-1.3,1.3-2.9,2-4.6,2.5c-1.8,0.6-3.7,0.9-5.6,1.2c-1.5,0.2-3,0.5-4.6,0.8
			c-1,0.2-1.2,0.1-1.7-0.8V36.5z"/>
	</defs>
	<clipPath id="SVGID_2_">
		<use xlink:href="#SVGID_1_"  style="overflow:visible;"/>
	</clipPath>
	<rect x="-2.7" y="1.7" class="st0" width="41.2" height="41.2"/>
</g>
<g>
	<defs>
		<path id="SVGID_3_" d="M30.9,2.2c0.4,0.1,0.8,0.2,1.2,0.3c3.6,1,6,4.3,5.8,8.1c-0.1,1.7-0.8,3.3-1.9,4.6c-0.5,0.6-1.2,0.6-1.8,0.1
			c-2.4-2.4-4.8-4.8-7.3-7.3c-0.7-0.7-1.3-1.3-2-2c-0.7-0.7-0.6-1.3,0.1-1.9c1.2-1,2.6-1.6,4.1-1.8c0.1,0,0.1,0,0.2-0.1H30.9"/>
	</defs>
	<clipPath id="SVGID_4_">
		<use xlink:href="#SVGID_3_"  style="overflow:visible;"/>
	</clipPath>
	<rect x="19.6" y="-2.8" class="st1" width="23.4" height="23.4"/>
</g>
</svg>
