<?xml version="1.0" encoding="utf-8"?>
<!-- Generator: Adobe Illustrator 19.1.0, SVG Export Plug-In . SVG Version: 6.00 Build 0)  -->
<svg version="1.1" id="Layer_1" xmlns="http://www.w3.org/2000/svg" xmlns:xlink="http://www.w3.org/1999/xlink" x="0px" y="0px"
	 viewBox="0 0 40 40" style="enable-background:new 0 0 40 40;" xml:space="preserve">
<style type="text/css">
	.st0{clip-path:url(#SVGID_2_);fill:#538CCA;}
	.st1{clip-path:url(#SVGID_4_);fill:#538CCA;}
</style>
<g>
	<defs>
		<path id="SVGID_1_" d="M23.4,13.8c0-0.4-0.3-0.8-0.7-0.9c-0.4-0.2-0.8,0-1.1,0.3c-2.2,2.2-4.3,4.3-6.5,6.5
			c-0.9,0.9-1.7,1.8-2.6,2.6c-0.3,0.3-0.4,0.6-0.3,0.9c0.1,0.4,0.3,0.6,0.7,0.8c0.4,0.1,0.7,0,1-0.3c1.1-1.1,2.2-2.2,3.3-3.3
			c1.9-1.9,3.9-3.9,5.8-5.8C23.2,14.4,23.4,14.1,23.4,13.8z M27.4,17.7c0,0,0-0.1,0-0.2c-0.2-0.8-1.1-1-1.7-0.4
			c-2.2,2.2-4.4,4.4-6.6,6.6c-0.9,0.9-1.7,1.7-2.6,2.6c-0.3,0.3-0.4,0.6-0.3,1c0.1,0.4,0.3,0.6,0.7,0.7c0.4,0.1,0.7,0,1-0.3
			c1.6-1.6,3.2-3.2,4.8-4.8c1.5-1.5,2.9-2.9,4.4-4.4C27.3,18.3,27.4,18,27.4,17.7z M9,24c-0.1,0.1-0.1,0.3-0.2,0.4
			c-0.7,1.7-1,3.6-1.3,5.4c0,0.1,0.1,0.2,0.1,0.3c0.8,0.8,1.6,1.6,2.5,2.4c0.1,0.1,0.2,0.1,0.3,0.1c0.5-0.1,0.9-0.1,1.4-0.2
			c1.3-0.2,2.7-0.5,3.9-1c0.2-0.1,0.3-0.2,0.5-0.2C13.7,28.8,11.4,26.4,9,24z M4.3,34.7c0.1-0.7,0.3-1.5,0.4-2.2
			c0.4-2.4,0.8-4.9,1.5-7.3c0.4-1.1,0.8-2.1,1.4-3.1c0.3-0.4,0.6-0.8,0.9-1.1c4.1-4.1,8.3-8.3,12.4-12.4c0.3-0.3,0.7-0.5,1.1-0.4
			c0.2,0.1,0.3,0.2,0.4,0.3c3,3,6.1,6.1,9.1,9.1c0.5,0.5,0.5,1,0,1.5c-4.3,4.3-8.5,8.5-12.8,12.8c-1.1,1.1-2.6,1.7-4.1,2.2
			c-1.6,0.5-3.3,0.8-5,1c-1.4,0.2-2.7,0.4-4.1,0.7c-0.8,0.1-1.1,0-1.5-0.7V34.7z"/>
	</defs>
	<clipPath id="SVGID_2_">
		<use xlink:href="#SVGID_1_"  style="overflow:visible;"/>
	</clipPath>
	<rect x="-0.7" y="3.2" class="st0" width="37.7" height="37.7"/>
</g>
<g>
	<defs>
		<path id="SVGID_3_" d="M29.7,4.2c0.4,0.1,0.7,0.1,1.1,0.2c3.2,0.9,5.4,3.8,5.1,7.2c-0.1,1.6-0.7,2.9-1.7,4.1
			c-0.5,0.5-1.1,0.6-1.6,0.1c-2.2-2.1-4.3-4.3-6.5-6.5c-0.6-0.6-1.2-1.2-1.8-1.7c-0.6-0.6-0.6-1.2,0.1-1.7c1.1-0.9,2.3-1.4,3.7-1.6
			c0.1,0,0.1,0,0.2-0.1H29.7"/>
	</defs>
	<clipPath id="SVGID_4_">
		<use xlink:href="#SVGID_3_"  style="overflow:visible;"/>
	</clipPath>
	<rect x="19" y="-0.8" class="st1" width="21.9" height="21.9"/>
</g>
</svg>
