<?xml version="1.0" encoding="utf-8"?>
<!-- Generator: Adobe Illustrator 19.1.0, SVG Export Plug-In . SVG Version: 6.00 Build 0)  -->
<svg version="1.1" id="Layer_1" xmlns="http://www.w3.org/2000/svg" xmlns:xlink="http://www.w3.org/1999/xlink" x="0px" y="0px"
	 viewBox="0 0 80 80" style="enable-background:new 0 0 80 80;" xml:space="preserve">
<style type="text/css">
	.st0{clip-path:url(#SVGID_2_);fill:#FFFFFF;}
	.st1{clip-path:url(#SVGID_4_);fill:#FFFFFF;}
</style>
<g>
	<defs>
		<path id="SVGID_1_" d="M46.4,28.6c0-0.8-0.5-1.5-1.2-1.8c-0.8-0.3-1.5,0-2.1,0.6c-4.1,4.1-8.2,8.2-12.2,12.2
			c-1.6,1.6-3.3,3.3-4.9,4.9c-0.5,0.5-0.8,1.1-0.6,1.8c0.2,0.7,0.6,1.2,1.3,1.4c0.7,0.2,1.4,0,1.9-0.5c2.1-2.1,4.2-4.2,6.2-6.2
			c3.7-3.7,7.3-7.3,11-11C46.1,29.6,46.4,29.2,46.4,28.6z M54,35.8c0-0.1,0-0.3-0.1-0.4c-0.4-1.5-2.1-1.8-3.2-0.7
			c-4.1,4.1-8.3,8.3-12.4,12.4c-1.6,1.6-3.2,3.2-4.8,4.8c-0.5,0.5-0.8,1.1-0.6,1.8c0.2,0.7,0.6,1.2,1.3,1.4c0.8,0.2,1.4-0.1,1.9-0.6
			c3-3,6-6,9-9c2.7-2.7,5.4-5.4,8.2-8.2C53.6,36.9,53.9,36.5,54,35.8z M19.4,47.7c-0.1,0.3-0.3,0.5-0.4,0.8
			c-1.4,3.2-1.9,6.7-2.5,10.2c0,0.1,0.1,0.4,0.2,0.5c1.5,1.5,3.1,3.1,4.6,4.6c0.1,0.1,0.4,0.2,0.7,0.2c0.9-0.1,1.8-0.3,2.6-0.4
			c2.5-0.4,5-0.9,7.3-2c0.3-0.1,0.6-0.3,0.9-0.4C28.3,56.6,23.9,52.2,19.4,47.7z M10.5,67.7c0.3-1.4,0.6-2.8,0.8-4.1
			c0.8-4.6,1.5-9.2,2.9-13.6c0.7-2,1.5-4,2.7-5.8c0.5-0.7,1.1-1.4,1.7-2.1c7.7-7.8,15.5-15.5,23.3-23.3c0.6-0.6,1.3-1,2.1-0.7
			c0.3,0.1,0.6,0.3,0.8,0.5c5.7,5.7,11.4,11.4,17.1,17.1c0.9,0.9,0.9,1.9,0,2.8c-8,8-16,16-24,24c-2.1,2.1-4.8,3.3-7.6,4.1
			c-3.1,1-6.2,1.5-9.3,2c-2.5,0.4-5.1,0.8-7.6,1.3c-1.6,0.3-2,0.1-2.8-1.3V67.7z"/>
	</defs>
	<clipPath id="SVGID_2_">
		<use xlink:href="#SVGID_1_"  style="overflow:visible;"/>
	</clipPath>
	<rect x="5.5" y="13" class="st0" width="62" height="62"/>
</g>
<g>
	<defs>
		<path id="SVGID_3_" d="M59.1,10c0.7,0.1,1.4,0.3,2.1,0.5c6,1.6,10,7.2,9.6,13.4c-0.2,2.9-1.3,5.5-3.2,7.7c-0.9,1-2,1-2.9,0.1
			c-4-4-8.1-8.1-12.1-12.1c-1.1-1.1-2.2-2.2-3.3-3.3c-1.1-1.1-1-2.2,0.1-3.2c2-1.7,4.3-2.7,6.8-3c0.1,0,0.2-0.1,0.3-0.1H59.1"/>
	</defs>
	<clipPath id="SVGID_4_">
		<use xlink:href="#SVGID_3_"  style="overflow:visible;"/>
	</clipPath>
	<rect x="43.5" y="5" class="st1" width="32.4" height="32.3"/>
</g>
</svg>
