<?xml version="1.0" encoding="utf-8"?>
<!-- Generator: Adobe Illustrator 19.1.0, SVG Export Plug-In . SVG Version: 6.00 Build 0)  -->
<svg version="1.1" id="Layer_1" xmlns="http://www.w3.org/2000/svg" xmlns:xlink="http://www.w3.org/1999/xlink" x="0px" y="0px"
	 viewBox="0 0 40 40" style="enable-background:new 0 0 40 40;" xml:space="preserve">
<style type="text/css">
	.st0{clip-path:url(#SVGID_2_);fill:#282828;}
</style>
<g>
	<g>
		<defs>
			<path id="SVGID_1_" d="M37.6,13.6c-0.1,0.3-0.2,0.5-0.3,0.8c-0.2,0.4-0.5,0.6-0.9,0.8c-1.6,0.8-3.1,1.7-4.5,2.8
				c-1.7,1.4-2.9,3.1-3.7,5.2c-0.7,1.8-1.2,3.6-1.4,5.4c-0.2,1.5-0.3,3-0.3,4.5c0,1.1-0.6,2-1.5,2.2s-1.7,0-2.3-0.7
				c-2.3-2.3-4.6-4.6-6.9-7c-0.1-0.1-0.1-0.1-0.2-0.2c-4.5,3.4-8.9,6.7-13.4,10l0,0c3.3-4.4,6.7-8.9,10-13.4
				c-0.1-0.1-0.2-0.1-0.2-0.2c-2.3-2.3-4.6-4.6-7-6.9c-0.3-0.3-0.6-0.7-0.7-1.2c-0.2-1,0.5-2.6,2-2.6c0.7,0,1.4,0,2.1-0.1
				c1.6-0.1,3.2-0.3,4.8-0.6c1.7-0.4,3.4-1,5-1.8C19.7,9.8,21,8.7,22,7.3c1-1.3,1.8-2.7,2.5-4.1c0.3-0.7,0.9-1,1.6-1.2h0.1h0.6
				c0.6,0.1,1.1,0.5,1.6,1c0.2,0.2,0.4,0.4,0.6,0.7c2.5,2.5,5,5,7.5,7.5c0.5,0.5,0.9,0.9,1.1,1.5V13.6"/>
		</defs>
		<use xlink:href="#SVGID_1_"  style="overflow:visible;fill:#282828;"/>
		<clipPath id="SVGID_2_">
			<use xlink:href="#SVGID_1_"  style="overflow:visible;"/>
		</clipPath>
		<rect x="-3" y="-3" class="st0" width="45.6" height="45.6"/>
	</g>
</g>
</svg>
