<?xml version="1.0" encoding="utf-8"?>
<!-- Generator: Adobe Illustrator 19.1.0, SVG Export Plug-In . SVG Version: 6.00 Build 0)  -->
<svg version="1.1" id="Layer_1" xmlns="http://www.w3.org/2000/svg" xmlns:xlink="http://www.w3.org/1999/xlink" x="0px" y="0px"
	 viewBox="0 0 30 30" style="enable-background:new 0 0 30 30;" xml:space="preserve">
<style type="text/css">
	.st0{clip-path:url(#SVGID_4_);fill:#282829;}
</style>
<g>
	<defs>
		<path id="SVGID_1_" d="M5.5,25.1c1-0.5,1.9-0.9,2.9-1.3c0.5-0.2,1-0.4,1.5-0.6c0.5-0.3,1-0.6,1.5-0.9c0.4-0.3,0.7-0.8,0.7-1.4
			c0-0.6,0-1.2,0-1.8c0-0.1,0-0.2-0.1-0.3c-0.6-0.6-0.9-1.4-1.1-2.2c-0.1-0.3-0.1-0.7-0.5-0.8c-0.1,0-0.2-0.1-0.2-0.2
			c-0.3-0.5-0.5-1.1-0.4-1.7c0-0.2,0.1-0.5,0.2-0.6c0.2-0.2,0.2-0.4,0.1-0.6c-0.3-1.4-0.5-2.8-0.3-4.2c0.3-1.7,1.2-2.9,2.8-3.5
			c1-0.3,2-0.4,3-0.3c0.7,0.1,1.4,0.2,1.9,0.8c0.2,0.2,0.4,0.3,0.6,0.3c0.9,0.2,1.6,0.7,2,1.7c0.2,0.6,0.3,1.3,0.4,1.9
			c0.1,1.2-0.2,2.3-0.5,3.5c0,0.1,0,0.3,0,0.4c0.5,0.7,0.4,2.1-0.3,2.6c-0.1,0.1-0.2,0.1-0.2,0.1c-0.1,0.1-0.2,0.2-0.2,0.3
			c-0.1,0.8-0.3,1.5-0.9,2.1c-0.5,0.5-0.5,1.1-0.5,1.7c0,0.3,0,0.5,0,0.8c-0.1,0.7,0.3,1.3,0.9,1.6c0.5,0.3,1,0.6,1.5,0.8
			c1.1,0.5,2.2,0.9,3.2,1.4c0.3,0.1,0.6,0.4,0.9,0.5c5.4-4.8,6.1-13.9,0.7-19.6c-5.5-5.8-15-5.8-20.4,0.2
			C-0.6,11.5,0.3,20.4,5.5,25.1z M15,0c8.2,0.1,15,6.7,15,15c0,8.2-6.8,15-15,15C6.8,30,0,23.3,0,15.1C0,6.7,6.7,0.1,15,0z"/>
	</defs>
	<clipPath id="SVGID_2_">
		<use xlink:href="#SVGID_1_"  style="overflow:visible;"/>
	</clipPath>
</g>
<g>
	<defs>
		<path id="SVGID_3_" d="M5.5,25.1c1-0.5,1.9-0.9,2.9-1.3c0.5-0.2,1-0.4,1.5-0.6c0.5-0.3,1-0.6,1.5-0.9c0.4-0.3,0.7-0.8,0.7-1.4
			c0-0.6,0-1.2,0-1.8c0-0.1,0-0.2-0.1-0.3c-0.6-0.6-0.9-1.4-1.1-2.2c-0.1-0.3-0.1-0.7-0.5-0.8c-0.1,0-0.2-0.1-0.2-0.2
			c-0.3-0.5-0.5-1.1-0.4-1.7c0-0.2,0.1-0.5,0.2-0.6c0.2-0.2,0.2-0.4,0.1-0.6c-0.3-1.4-0.5-2.8-0.3-4.2c0.3-1.7,1.2-2.9,2.8-3.5
			c1-0.3,2-0.4,3-0.3c0.7,0.1,1.4,0.2,1.9,0.8c0.2,0.2,0.4,0.3,0.6,0.3c0.9,0.2,1.6,0.7,2,1.7c0.2,0.6,0.3,1.3,0.4,1.9
			c0.1,1.2-0.2,2.3-0.5,3.5c0,0.1,0,0.3,0,0.4c0.5,0.7,0.4,2.1-0.3,2.6c-0.1,0.1-0.2,0.1-0.2,0.1c-0.1,0.1-0.2,0.2-0.2,0.3
			c-0.1,0.8-0.3,1.5-0.9,2.1c-0.5,0.5-0.5,1.1-0.5,1.7c0,0.3,0,0.5,0,0.8c-0.1,0.7,0.3,1.3,0.9,1.6c0.5,0.3,1,0.6,1.5,0.8
			c1.1,0.5,2.2,0.9,3.2,1.4c0.3,0.1,0.6,0.4,0.9,0.5c5.4-4.8,6.1-13.9,0.7-19.6c-5.5-5.8-15-5.8-20.4,0.2
			C-0.6,11.5,0.3,20.4,5.5,25.1z M15,0c8.2,0.1,15,6.7,15,15c0,8.2-6.8,15-15,15C6.8,30,0,23.3,0,15.1C0,6.7,6.7,0.1,15,0z"/>
	</defs>
	<clipPath id="SVGID_4_">
		<use xlink:href="#SVGID_3_"  style="overflow:visible;"/>
	</clipPath>
	<rect x="-5" y="-5" class="st0" width="40" height="40"/>
</g>
</svg>
