
<svg xmlns="http://www.w3.org/2000/svg" version="1.1" xmlns:xlink="http://www.w3.org/1999/xlink" preserveAspectRatio="none" x="0px" y="0px" width="80px" height="80px" viewBox="0 0 80 80">
<defs>
<g id="Layer0_0_FILL">
<path fill="#00CCFF" stroke="none" d="
M 68.05 12.4
Q 67.5 11.8 66.75 11.8
L 50.75 11.4
Q 45.75 9.55 40 9.55 34.2 9.55 29.25 11.4
L 12.85 11.4
Q 12.05 11.4 11.5 11.95 10.95 12.5 10.95 13.3
L 10.95 30.55
Q 9.5 34.95 9.5 40 9.5 45.05 10.95 49.55
L 10.95 66.7
Q 10.95 67.55 11.5 68.1 12.05 68.6 12.85 68.6 13.05 68.6 13.25 68.55 13.45 68.6 13.7 68.6
L 29.2 68.6
Q 34.2 70.5 40 70.5 45.75 70.5 50.75 68.6
L 66.25 68.6
Q 66.35 68.6 66.5 68.6 66.6 68.6 66.7 68.6 67.5 68.6 68.05 68.1 68.6 67.55 68.6 66.7
L 68.6 50.75
Q 70.45 45.75 70.45 40 70.45 34.25 68.6 29.25
L 68.6 13.7
Q 68.6 12.95 68.05 12.4
M 64.8 15.55
L 64.8 22.3
Q 63.4 20.45 61.8 18.7 61.65 18.55 61.55 18.5 59.85 16.75 58.05 15.45
L 64.8 15.55
M 59.05 21.45
L 59.05 21.4
Q 60.9 23.25 62.3 25.4
L 39.2 38.65
Q 38.55 39.05 38.35 39.8 38.1 40.55 38.55 41.25 38.95 41.9 39.7 42.15 40.4 42.35 41.1 41.95
L 64.2 28.65
Q 64.55 29.4 64.85 30.15 64.85 30.2 64.9 30.25 64.9 30.3 64.95 30.35
L 64.95 30.4
Q 66.65 34.85 66.65 40 66.65 45.15 65 49.6
L 64.95 49.65 64.95 49.7 64.9 49.75 64.9 49.8
Q 62.9 54.75 58.85 58.85 58.65 59 58.5 59.25 54.5 63 49.8 64.9
L 49.75 64.9 49.7 64.95 49.65 64.95 49.6 65
Q 45.1 66.65 40 66.65 34.85 66.65 30.4 65
L 30.35 64.95 30.3 64.95 30.25 64.9 30.15 64.9
Q 25.4 63 21.45 59.2 21.25 59 21.1 58.85 16.6 54.35 14.7 48.8 14.65 48.6 14.6 48.45 13.3 44.5 13.3 40 13.3 35.55 14.6 31.6 14.65 31.45 14.7 31.3 16.55 25.75 20.95 21.35
L 20.95 21.4
Q 21.05 21.3 21.1 21.2
L 21.05 21.2
Q 25.2 17.1 30.2 15.15 30.2 15.1 30.25 15.1
L 30.35 15.1 30.45 15.05
Q 34.85 13.35 40 13.35 45.15 13.35 49.65 15.05
L 49.7 15.1
Q 54.7 17.05 58.85 21.2 58.95 21.3 59.05 21.45
M 18.2 18.65
Q 16.25 20.65 14.75 22.8
L 14.75 15.2 22.2 15.2
Q 20.2 16.6 18.4 18.5 18.3 18.55 18.2 18.65
M 18.55 61.65
Q 18.6 61.7 18.65 61.8 20.35 63.5 22.2 64.8
L 14.75 64.8 14.75 57.25
Q 16.3 59.5 18.4 61.55 18.45 61.6 18.55 61.65
M 61.3 61.8
Q 61.4 61.65 61.55 61.55 63.35 59.7 64.8 57.75
L 64.8 64.8 57.8 64.8
Q 59.6 63.5 61.3 61.8
M 50.7 24.1
Q 51.05 23.4 50.9 22.65 50.65 21.9 49.95 21.55 48.8 20.9 47.6 20.45 44.05 19.05 40 19.05 35.9 19.05 32.4 20.45 28.4 21.9 25.1 25.2 24.95 25.3 24.8 25.55 21.5 29 20.05 33.3 19.05 36.4 19.05 40 19.05 43.55 20.05 46.75 21.55 51.2 25.1 54.8 25.2 54.9 25.3 55 28.5 58.1 32.3 59.55
L 32.35 59.6
Q 35.9 60.95 40 60.95 44.05 60.95 47.6 59.6
L 47.6 59.55
Q 50.6 58.4 53.3 56.2 53.95 55.7 54.05 54.95 54.05 54.15 53.6 53.55 53.1 52.9 52.35 52.85 51.55 52.75 50.95 53.25 48.7 55.05 46.2 56.05 43.3 57.15 40 57.15 36.65 57.15 33.75 56.05 30.6 54.8 28 52.3
L 28.05 52.3
Q 27.95 52.2 27.85 52.1 24.9 49.2 23.7 45.55 22.85 42.9 22.85 40 22.85 37.05 23.7 34.5 24.9 30.85 27.75 28 27.7833984375 27.95 27.8 27.9
L 27.8 27.9
Q 27.85 27.85 27.9 27.8
L 27.85 27.85
Q 27.925 27.775 28 27.7 30.6 25.2 33.8 24 36.65 22.85 40 22.85 43.3 22.85 46.2 24 47.15 24.35 48.1 24.85 48.85 25.25 49.6 25.05 50.3 24.8 50.7 24.1 Z"/>
</g>
</defs>

<g transform="matrix( 1, 0, 0, 1, 0,0) ">
<use xlink:href="#Layer0_0_FILL"/>
</g>
</svg>
