
<svg xmlns="http://www.w3.org/2000/svg" version="1.1" xmlns:xlink="http://www.w3.org/1999/xlink" preserveAspectRatio="none" x="0px" y="0px" width="80px" height="80px" viewBox="0 0 80 80">
<defs>
<g id="Layer0_0_FILL">
<path fill="#393148" stroke="none" d="
M 68.05 12.4
L 68.25 11.7 68.05 11.95 68.05 12.4 Z"/>

<path fill="#996600" stroke="none" d="
M 80 40
Q 80 23.8 68.5 11.95 68.4 11.85 68.25 11.7
L 68.05 12.4 68.05 11.95 68.25 11.7
Q 56.55 0 40 0 23.45 0 11.7 11.7 11.6 11.8 11.5 11.95 0 23.55 0 40 0 56.4 11.5 68.05 11.6 68.15 11.7 68.25
L 11.75 68.3
Q 11.85 68.4 11.95 68.5
L 12 68.55
Q 23.7 80 40 80 56.4 80 68.05 68.55
L 68.05 68.45
Q 68.15 68.35 68.25 68.25 80 56.55 80 40 Z"/>
</g>

<g id="Layer0_1_FILL">
<path fill="#999999" stroke="none" d="
M 318.15 226.6
Q 312.65 224.45 308.05 220 307.95 219.85 307.8 219.75 302.65 214.6 300.55 208.25
L 300.55 226.6 318.15 226.6
M 300.55 188.9
Q 302.65 182.6 307.6 177.55 307.7 177.45 307.8 177.35 312.5 172.7 318.2 170.5
L 300.55 170.5 300.55 188.9
M 357.1 209.45
Q 354.9 215.1 350.25 219.75 350.15 219.85 350.05 220 345.45 224.45 339.95 226.6
L 357.1 226.6 357.1 209.45
M 339.95 170.5
Q 345.6 172.7 350.25 177.35 350.35 177.45 350.5 177.6 353.35 180.5 355.3 183.85
L 357.1 183.85 357.1 170.5 339.95 170.5 Z"/>

<path fill="#00CC00" stroke="none" d="
M 357.1 187.65
Q 356.35 185.65 355.3 183.85
L 329.25 198.85 355.3 183.85
Q 353.35 180.5 350.5 177.6 350.35 177.45 350.25 177.35 345.6 172.7 339.95 170.5 334.9 168.55 329.05 168.55 323.2 168.55 318.2 170.5 312.5 172.7 307.8 177.35 307.7 177.45 307.6 177.55 302.65 182.6 300.55 188.9 299.05 193.4 299.05 198.55 299.05 203.7 300.55 208.25 302.65 214.6 307.8 219.75 307.95 219.85 308.05 220 312.65 224.45 318.15 226.6 323.2 228.55 329.05 228.55 334.9 228.55 339.95 226.6 345.45 224.45 350.05 220 350.15 219.85 350.25 219.75 354.9 215.1 357.1 209.45 359.05 204.4 359.05 198.55 359.05 192.7 357.1 187.65 Z"/>
</g>

<g id="Layer0_1_MEMBER_0_FILL">
<path fill="#FFCC00" stroke="none" d="
M 325.3 182.95
Q 325.3 182.05 324.65 181.4 324.05 180.8 323.15 180.8 322.25 180.8 321.6 181.4 321 182.05 321 182.95 321 183.85 321.6 184.45 322.25 185.1 323.15 185.1 324.05 185.1 324.65 184.45 325.3 183.85 325.3 182.95 Z"/>
</g>

<g id="Layer0_1_MEMBER_1_FILL">
<path fill="#FFCC00" stroke="none" d="
M 325.3 182.95
Q 325.3 182.05 324.65 181.4 324.05 180.8 323.15 180.8 322.25 180.8 321.6 181.4 321 182.05 321 182.95 321 183.85 321.6 184.45 322.25 185.1 323.15 185.1 324.05 185.1 324.65 184.45 325.3 183.85 325.3 182.95 Z"/>
</g>

<g id="Layer0_1_MEMBER_2_FILL">
<path fill="#FFCC00" stroke="none" d="
M 325.3 182.95
Q 325.3 182.05 324.65 181.4 324.05 180.8 323.15 180.8 322.25 180.8 321.6 181.4 321 182.05 321 182.95 321 183.85 321.6 184.45 322.25 185.1 323.15 185.1 324.05 185.1 324.65 184.45 325.3 183.85 325.3 182.95 Z"/>
</g>

<path id="Layer0_1_1_STROKES" stroke="#CCCCCC" stroke-width="2" stroke-linejoin="round" stroke-linecap="round" fill="none" d="
M 355.3 183.85
Q 356.35 185.65 357.1 187.65 359.05 192.7 359.05 198.55 359.05 204.4 357.1 209.45
M 339.95 226.6
Q 334.9 228.55 329.05 228.55 323.2 228.55 318.15 226.6
M 300.55 208.25
Q 299.05 203.7 299.05 198.55 299.05 193.4 300.55 188.9
M 318.2 170.5
Q 323.2 168.55 329.05 168.55 334.9 168.55 339.95 170.5
M 355.3 183.85
Q 353.35 180.5 350.5 177.6 350.35 177.45 350.25 177.35 345.6 172.7 339.95 170.5
M 357.1 209.45
Q 354.9 215.1 350.25 219.75 350.15 219.85 350.05 220 345.45 224.45 339.95 226.6
M 300.55 188.9
Q 302.65 182.6 307.6 177.55 307.7 177.45 307.8 177.35 312.5 172.7 318.2 170.5
M 318.15 226.6
Q 312.65 224.45 308.05 220 307.95 219.85 307.8 219.75 302.65 214.6 300.55 208.25"/>

<path id="Layer0_1_2_STROKES" stroke="#FFFFFF" stroke-width="2" stroke-linejoin="round" stroke-linecap="round" fill="none" d="
M 355.3 183.85
L 329.25 198.85"/>
</defs>

<g transform="matrix( 1, 0, 0, 1, 0,0) ">
<use xlink:href="#Layer0_0_FILL"/>
</g>

<g transform="matrix( 1, 0, 0, 1, -289.05,-158.55) ">
<use xlink:href="#Layer0_1_FILL"/>

<use xlink:href="#Layer0_1_1_STROKES"/>

<use xlink:href="#Layer0_1_2_STROKES"/>
</g>

<g transform="matrix( 1, 0, 0, 1, -279.65,-158.55) ">
<use xlink:href="#Layer0_1_MEMBER_0_FILL"/>
</g>

<g transform="matrix( 1, 0, 0, 1, -267.9,-128.3) ">
<use xlink:href="#Layer0_1_MEMBER_1_FILL"/>
</g>

<g transform="matrix( 1, 0, 0, 1, -297.5,-143.1) ">
<use xlink:href="#Layer0_1_MEMBER_2_FILL"/>
</g>
</svg>
