<?xml version="1.0" encoding="utf-8"?>
<!-- Generator: Adobe Illustrator 19.1.0, SVG Export Plug-In . SVG Version: 6.00 Build 0)  -->
<svg version="1.1" id="Layer_1" xmlns="http://www.w3.org/2000/svg" xmlns:xlink="http://www.w3.org/1999/xlink" x="0px" y="0px"
	 viewBox="0 0 40 40" style="enable-background:new 0 0 40 40;" xml:space="preserve">
<style type="text/css">
	.st0{clip-path:url(#SVGID_2_);fill:#538CCA;}
	.st1{clip-path:url(#SVGID_4_);fill:#538CCA;}
	.st2{clip-path:url(#SVGID_6_);fill:#538CCA;}
</style>
<g>
	<defs>
		<path id="SVGID_1_" d="M20.2,33c4,0,8,0,12,0c0.7,0,1.5,0,2-0.7c0.5-0.8,0.1-1.5-0.3-2.1c0,0,0,0,0-0.1
			c-3.9-6.7-7.9-13.5-11.8-20.2c-1.2-2-2.3-2-3.5,0c-2.6,4.4-5.2,8.9-7.8,13.3c-1.4,2.4-2.9,4.9-4.3,7.4c-0.8,1.4-0.2,2.4,1.4,2.5
			c0.2,0,0.4,0,0.6,0H20.2z M2,33.9v-1.4c0.3-0.7,0.6-1.4,0.9-2c4.6-7.9,9.2-15.7,13.8-23.6c0.7-1.2,1.4-2.3,2.7-2.8h1.4
			c1.3,0.6,2.1,1.7,2.7,2.8c3.5,6,7,11.9,10.5,17.9c1.5,2.5,2.9,5.2,4.3,7.7v1.4c-0.7,1.6-2,2.1-3.7,2.1c-9.7,0-19.4,0-29.1,0
			C4,36,2.7,35.5,2,33.9z"/>
	</defs>
	<clipPath id="SVGID_2_">
		<use xlink:href="#SVGID_1_"  style="overflow:visible;"/>
	</clipPath>
	<rect x="-3" y="-1" class="st0" width="46.4" height="42"/>
</g>
<g>
	<defs>
		<path id="SVGID_3_" d="M22.5,19.1c0,1,0.1,2.1,0,3.1c-0.1,0.8-0.4,1.6-0.8,2.2c-0.7,1-2.1,1-2.8,0c-0.4-0.6-0.8-1.3-0.8-2
			c-0.1-2.1-0.2-4.2-0.1-6.3c0-0.7,0.3-1.5,0.7-2c0.8-1.3,2.6-1.3,3.4,0c0.4,0.6,0.6,1.3,0.7,2c0.1,1,0,2.1,0,3.1
			C22.6,19.1,22.5,19.1,22.5,19.1"/>
	</defs>
	<clipPath id="SVGID_4_">
		<use xlink:href="#SVGID_3_"  style="overflow:visible;"/>
	</clipPath>
	<rect x="12.8" y="8.1" class="st1" width="14.8" height="22.1"/>
</g>
<g>
	<defs>
		<path id="SVGID_5_" d="M20.2,30.8c-1.2,0-2.2-1-2.2-2.2c0-1.2,1-2.3,2.3-2.2c1.2,0,2.2,1.1,2.2,2.2C22.4,29.8,21.4,30.8,20.2,30.8
			"/>
	</defs>
	<clipPath id="SVGID_6_">
		<use xlink:href="#SVGID_5_"  style="overflow:visible;"/>
	</clipPath>
	<rect x="13" y="21.4" class="st2" width="14.5" height="14.4"/>
</g>
</svg>
