<?xml version="1.0" encoding="utf-8"?>
<!-- Generator: Adobe Illustrator 19.1.0, SVG Export Plug-In . SVG Version: 6.00 Build 0)  -->
<svg version="1.1" id="Layer_1" xmlns="http://www.w3.org/2000/svg" xmlns:xlink="http://www.w3.org/1999/xlink" x="0px" y="0px"
	 viewBox="0 0 80 80" style="enable-background:new 0 0 80 80;" xml:space="preserve">
<style type="text/css">
	.st0{clip-path:url(#SVGID_2_);fill:#FFFFFF;}
</style>
<g>
	<defs>
		<path id="SVGID_1_" d="M12.2,33.9C12.1,45.5,22,55.4,33.7,55.4c11.9,0,21.5-9.7,21.5-21.6c0-11.8-10-21.4-21.5-21.4
			C22.1,12.4,12.1,22.2,12.2,33.9z M52.8,61.7c-15.8,10.8-36,5.8-45.9-7.3C-3.2,41-2.1,22,9.8,10.1C21.6-1.7,40.2-3.3,54.1,7
			c13,9.7,18.3,29.9,7.4,46c0.2,0.2,0.4,0.4,0.6,0.6c5.2,5.2,10.3,10.3,15.5,15.5c1.8,1.8,2.5,3.9,1.8,6.4c-1.2,4.2-6.5,5.7-9.7,2.8
			c-1.1-0.9-2.1-2-3.1-3c-4.4-4.4-8.8-8.8-13.2-13.2C53.2,62,53,61.9,52.8,61.7z"/>
	</defs>
	<clipPath id="SVGID_2_">
		<use xlink:href="#SVGID_1_"  style="overflow:visible;"/>
	</clipPath>
	<rect x="-5" y="-4.8" class="st0" width="89.7" height="89.7"/>
</g>
</svg>
