<?xml version="1.0" encoding="utf-8"?>
<!-- Generator: Adobe Illustrator 19.1.0, SVG Export Plug-In . SVG Version: 6.00 Build 0)  -->
<svg version="1.1" id="Layer_1" xmlns="http://www.w3.org/2000/svg" xmlns:xlink="http://www.w3.org/1999/xlink" x="0px" y="0px"
	 viewBox="0 0 40 40" style="enable-background:new 0 0 40 40;" xml:space="preserve">
<style type="text/css">
	.st0{clip-path:url(#SVGID_2_);fill:#282829;}
</style>
<g>
	<defs>
		<path id="SVGID_1_" d="M2,19.8c0.1-3.5,2.5-6.1,5.1-6.9c2.6-0.8,5-0.4,7.1,1.4c0.3,0.2,0.4,0.2,0.7,0.1c2.6-1.3,5.1-2.6,7.7-3.8
			c0.3-0.1,0.3-0.3,0.3-0.5c-0.3-4.6,3.7-8.3,8.2-7.9c4.5,0.5,8.1,5.1,6.1,10.3c-1.2,3.2-4.7,5.1-8.2,4.5c-1.3-0.2-2.5-0.8-3.6-1.7
			C25.4,15,25.2,15,25,15.1c-2.6,1.3-5.2,2.6-7.8,3.9c-0.2,0.1-0.3,0.3-0.3,0.5c0,0.3,0,0.6,0,0.9c0,0.2,0,0.4,0.2,0.5
			c2.6,1.3,5.3,2.6,7.9,3.9c0.2,0.1,0.3,0.1,0.5-0.1c1.9-1.7,4.2-2.1,6.6-1.6c3.1,0.7,5.5,3.6,5.7,6.8c0.2,3.5-1.8,6.5-5.1,7.6
			c-5,1.6-9.3-2-9.7-6.2c0-0.5,0-1-0.1-1.5c0-0.1-0.1-0.3-0.2-0.3c-2.7-1.3-5.3-2.7-8-4c-0.1-0.1-0.3,0-0.4,0.1
			c-1,0.9-2.2,1.5-3.6,1.7C5.8,28.1,1.8,24.2,2,19.8"/>
	</defs>
	<clipPath id="SVGID_2_">
		<use xlink:href="#SVGID_1_"  style="overflow:visible;"/>
	</clipPath>
	<rect x="-3" y="-3" class="st0" width="45.9" height="45.9"/>
</g>
</svg>
