<?xml version="1.0" encoding="utf-8"?>
<!-- Generator: Adobe Illustrator 19.1.0, SVG Export Plug-In . SVG Version: 6.00 Build 0)  -->
<svg version="1.1" id="Layer_1" xmlns="http://www.w3.org/2000/svg" xmlns:xlink="http://www.w3.org/1999/xlink" x="0px" y="0px"
	 viewBox="0 0 40 40" style="enable-background:new 0 0 40 40;" xml:space="preserve">
<style type="text/css">
	.st0{clip-path:url(#SVGID_2_);fill:#000000;}
</style>
<g>
	<defs>
		<path id="SVGID_1_" d="M28.4,6.8l-0.6-0.6C24.9,3.4,21.3,2,17.2,2C13.2,2,9.7,3.4,6.8,6.2L6.2,6.8C3.4,9.8,2,13.3,2,17.4
			C2,21.5,3.4,25,6.2,28l10.6,10.7c0.1,0.1,0.3,0.2,0.5,0.2s0.3-0.1,0.5-0.2l5.6-5.7c0.1-0.1,0.2-0.3,0.2-0.5c0-0.2-0.1-0.3-0.2-0.5
			c-0.1-0.1-0.3-0.2-0.5-0.2c-0.2,0-0.3,0.1-0.5,0.2l-5.2,5.2L7.2,27h0c-2.5-2.6-3.8-5.9-3.8-9.6c0-3.7,1.3-7,3.8-9.6l0.6-0.6
			c2.6-2.5,5.8-3.8,9.5-3.8c3.7,0,6.9,1.3,9.6,3.8v0l0.6,0.6c2.5,2.7,3.8,5.9,3.8,9.6c0,0.9-0.1,1.7-0.2,2.6c0,0.2,0,0.4,0.1,0.5
			c0.1,0.1,0.3,0.2,0.4,0.3c0.2,0,0.4,0,0.5-0.1c0.2-0.1,0.2-0.3,0.3-0.4c0.1-0.9,0.2-1.9,0.2-2.8C32.5,13.3,31.2,9.7,28.4,6.8
			L28.4,6.8 M22.3,12.6c1.4,1.4,2.1,3.1,2.1,5.1s-0.7,3.7-2.1,5.1c-1.4,1.4-3.1,2.1-5,2.1s-3.7-0.7-5.1-2.1
			c-1.4-1.4-2.1-3.1-2.1-5.1s0.7-3.7,2.1-5.1c1.4-1.4,3.1-2.1,5.1-2.1S20.9,11.2,22.3,12.6 M25.8,17.7c0-2.4-0.8-4.4-2.5-6.1
			c-1.7-1.7-3.6-2.5-6-2.5s-4.3,0.8-6,2.5c-1.7,1.7-2.5,3.7-2.5,6.1s0.8,4.4,2.5,6c1.7,1.7,3.7,2.5,6,2.5s4.3-0.8,6-2.5
			C24.9,22,25.8,20,25.8,17.7 M32.7,27c0.5,0.5,0.8,1.2,0.8,1.9c0,0.8-0.3,1.4-0.8,2c-0.5,0.5-1.2,0.8-2,0.8c-0.7,0-1.4-0.3-2-0.8
			c-0.5-0.5-0.8-1.2-0.8-2c0-0.8,0.3-1.4,0.8-1.9c0.6-0.6,1.2-0.9,2-0.9C31.5,26.2,32.1,26.5,32.7,27L32.7,27 M33.6,26
			c-0.8-0.8-1.8-1.2-2.9-1.2c-1.1,0-2.1,0.4-2.9,1.2c-0.8,0.8-1.2,1.7-1.2,2.9c0,1.1,0.4,2.1,1.2,2.9v0c0.8,0.8,1.8,1.2,2.9,1.2
			c1.1,0,2.1-0.4,2.9-1.2c0.8-0.8,1.2-1.8,1.2-2.9C34.8,27.8,34.4,26.8,33.6,26 M26.8,24.6L26.8,24.6c1.1-1,2.4-1.6,3.9-1.6
			s2.9,0.5,3.9,1.6v0l0.3,0.3c1,1.1,1.5,2.4,1.5,4c0,1.6-0.5,2.9-1.5,4L30.7,37l-4.2-4.2h0c-1-1.1-1.6-2.4-1.6-4
			c0-1.6,0.5-2.9,1.5-4L26.8,24.6 M25.8,23.7L25.5,24c-1.3,1.3-1.9,3-1.9,4.9c0,1.9,0.6,3.6,1.9,4.9l4.7,4.7
			c0.1,0.1,0.3,0.2,0.5,0.2s0.3-0.1,0.5-0.2l4.7-4.7h0c1.3-1.3,1.9-3,1.9-4.9c0-1.9-0.6-3.6-1.9-4.9l-0.3-0.3c-1.4-1.3-3-2-4.9-2
			C28.8,21.7,27.2,22.3,25.8,23.7 M17.7,4.9c-0.2,0-0.5,0-0.7,0c-3.4,0-6.3,1.2-8.7,3.7c-2.4,2.4-3.6,5.3-3.6,8.6v0.2
			c0,0.2,0.1,0.3,0.2,0.5C5,18,5.2,18.1,5.4,18.1c0.2,0,0.3-0.1,0.5-0.2C6,17.7,6,17.6,6,17.4v-0.2v0c0-3,1.1-5.5,3.2-7.6
			C11.4,7.4,14,6.3,17,6.3c0.2,0,0.4,0,0.5,0c0.2,0,0.4,0,0.5-0.1c0.1-0.1,0.2-0.3,0.2-0.5c0-0.2,0-0.3-0.1-0.5
			C18.1,5.1,17.9,5,17.7,4.9 M6,19.4c-0.2-0.1-0.3-0.1-0.5-0.1c-0.2,0-0.3,0.1-0.4,0.3C5,19.7,4.9,19.9,5,20.1
			c0.1,0.6,0.3,1.3,0.5,1.9c0,0.2,0.2,0.3,0.3,0.4c0.2,0.1,0.4,0.1,0.5,0c0.2-0.1,0.3-0.2,0.4-0.4c0.1-0.2,0.1-0.4,0-0.5
			c-0.2-0.5-0.4-1.1-0.5-1.6C6.3,19.6,6.2,19.5,6,19.4"/>
	</defs>
	<clipPath id="SVGID_2_">
		<use xlink:href="#SVGID_1_"  style="overflow:visible;"/>
	</clipPath>
	<rect x="-3" y="-3" class="st0" width="45.8" height="46.9"/>
</g>
</svg>
