<?xml version="1.0" encoding="utf-8"?>
<!-- Generator: Adobe Illustrator 19.1.0, SVG Export Plug-In . SVG Version: 6.00 Build 0)  -->
<svg version="1.1" id="Layer_1" xmlns="http://www.w3.org/2000/svg" xmlns:xlink="http://www.w3.org/1999/xlink" x="0px" y="0px"
	 viewBox="0 0 20 20" style="enable-background:new 0 0 20 20;" xml:space="preserve">
<style type="text/css">
	.st0{fill:#97978F;}
</style>
<g transform="matrix( 1, 0, 0, 1, 0,0) ">
	<g>
		<g id="Layer0_0_FILL">
			<path class="st0" d="M5.3,3.1C5.2,3.2,5.1,3.3,5.1,3.4v13.1c0,0.1,0.1,0.2,0.2,0.4c0.1,0.1,0.2,0.1,0.3,0.1h8.8
				c0.1,0,0.2-0.1,0.4-0.1c0.1-0.1,0.1-0.2,0.1-0.4V3.4c0-0.1,0-0.2-0.1-0.3s-0.2-0.2-0.4-0.2H5.6C5.5,2.9,5.4,3,5.3,3.1 M6.1,3.9
				h7.8v12.1H6.1V3.9 M7.4,5.4C7.3,5.5,7.3,5.6,7.3,5.7v7.5c0,0.1,0,0.2,0.1,0.3c0.1,0.1,0.2,0.2,0.4,0.2h4.5c0.1,0,0.2-0.1,0.4-0.2
				c0.1-0.1,0.1-0.2,0.1-0.3V5.7c0-0.1-0.1-0.2-0.1-0.3c-0.1-0.1-0.2-0.2-0.4-0.2H7.8C7.6,5.2,7.5,5.2,7.4,5.4 M8.3,6.2h3.5v6.5H8.3
				V6.2z"/>
		</g>
	</g>
</g>
</svg>
