<?xml version="1.0" encoding="utf-8"?>
<!-- Generator: Adobe Illustrator 19.1.0, SVG Export Plug-In . SVG Version: 6.00 Build 0)  -->
<svg version="1.1" id="Layer_1" xmlns="http://www.w3.org/2000/svg" xmlns:xlink="http://www.w3.org/1999/xlink" x="0px" y="0px"
	 viewBox="0 0 20 20" style="enable-background:new 0 0 20 20;" xml:space="preserve">
<style type="text/css">
	.st0{fill:#97978F;}
</style>
<g transform="matrix( 1, 0, 0, 1, 0,0) ">
	<g>
		<g id="Layer0_0_FILL">
			<path class="st0" d="M7.5,3.8C6.7,4.2,6,4.6,5.4,5.3C4.8,5.9,4.3,6.6,3.9,7.5c-0.3,0.9-0.5,1.8-0.5,2.7c0,0.9,0.2,1.7,0.6,2.5
				c0.3,0.8,0.8,1.5,1.5,2.1c0.7,0.6,1.4,1.1,2.2,1.4c0.9,0.4,1.8,0.5,2.8,0.5c0.8,0,1.6-0.2,2.5-0.6c0.8-0.3,1.4-0.8,2-1.4
				c0.6-0.6,1.1-1.3,1.5-2.1c0.4-0.8,0.5-1.7,0.5-2.6c0-0.9-0.2-1.8-0.6-2.6c-0.4-0.8-0.9-1.6-1.5-2.2c-0.6-0.6-1.4-1.1-2.2-1.4
				c-0.9-0.3-1.8-0.5-2.7-0.4C9.2,3.3,8.3,3.5,7.5,3.8 M6.1,6c0.4-0.4,0.8-0.7,1.2-1c0.4-0.3,0.8-0.4,1.1-0.4L8.3,4.9
				C8,5.6,7.8,6.4,7.6,7.3c0,0.1,0,0.1,0,0.1c0,0-0.1,0-0.1,0c-1,0.2-1.9,0.4-2.7,0.9h0c0-0.3,0.2-0.7,0.5-1.1
				C5.5,6.8,5.8,6.4,6.1,6 M12.1,4.9L12,4.6c0.3,0.1,0.7,0.2,1.1,0.5c0.4,0.2,0.8,0.5,1.1,0.9c0.4,0.4,0.7,0.8,1,1.1
				c0.3,0.4,0.4,0.8,0.4,1.1c-0.2-0.1-0.4-0.2-0.4-0.2c-0.7-0.3-1.4-0.5-2.2-0.7c0,0-0.1,0-0.1,0c0,0,0-0.1,0-0.1
				c-0.1-0.5-0.2-1-0.3-1.2C12.4,5.6,12.3,5.2,12.1,4.9 M9.9,4.4c0.2-0.1,0.4-0.1,0.5,0C10.7,4.7,10.9,4.8,11,5
				c0.2,0.3,0.4,0.7,0.5,1.1c0.1,0.3,0.2,0.6,0.3,1.1v0.1c-1.1-0.1-2.1-0.1-3.1,0c0-0.1,0.1-0.2,0.1-0.4C9,6.1,9.2,5.5,9.4,5
				C9.6,4.8,9.8,4.6,9.9,4.4 M15.8,9.7c0.1,0.2,0.1,0.4,0,0.6c-0.1,0.1-0.2,0.2-0.3,0.4c-0.1,0.1-0.2,0.1-0.4,0.2
				c-0.3,0.1-0.6,0.2-0.9,0.3c-0.2,0.1-0.6,0.2-1,0.3H13V8.5l0.5,0.1c0.7,0.2,1.3,0.4,1.8,0.7C15.5,9.4,15.7,9.6,15.8,9.7
				 M15.6,11.8L15.6,11.8c0,0.3-0.1,0.7-0.4,1.1c-0.3,0.4-0.6,0.8-1,1.1c-0.4,0.4-0.8,0.7-1.2,0.9c-0.4,0.3-0.7,0.4-1,0.5
				c0.1-0.2,0.2-0.4,0.2-0.6c0.1-0.2,0.1-0.4,0.2-0.6c0.1-0.2,0.1-0.5,0.2-0.8c0-0.1,0.1-0.3,0.2-0.8c0-0.1,0-0.1,0-0.1
				c0,0,0.1,0,0.1,0c0.5-0.1,0.9-0.3,1.4-0.4C14.8,12.1,15.2,12,15.6,11.8 M11.9,8.3C11.9,8.4,12,8.4,11.9,8.3
				c0.1,1.1,0.1,2.2,0,3.3c0,0,0,0.1,0,0.1c0,0-0.1,0-0.1,0l-1.6,0.1l-1.6-0.1c0,0-0.1,0-0.1,0c0,0,0-0.1,0-0.1
				c-0.1-1.1-0.1-2.2,0-3.2c0,0,0-0.1,0-0.1c0,0,0.1,0,0.1,0c1-0.1,2.1-0.1,3.2,0C11.9,8.3,11.9,8.3,11.9,8.3 M8.7,12.8L8.7,12.8
				l3.1-0.1l0,0.2c-0.1,0.4-0.2,0.7-0.3,1c-0.1,0.4-0.2,0.7-0.4,0.9c-0.2,0.3-0.4,0.5-0.5,0.6c-0.2,0.1-0.4,0.1-0.5,0
				c-0.1-0.1-0.2-0.2-0.3-0.3c-0.1-0.1-0.2-0.2-0.2-0.4C9.1,14.3,8.9,13.6,8.7,12.8 M8.5,15.3L8.5,15.3c-0.7-0.1-1.3-0.5-1.9-0.9
				c-0.9-0.7-1.5-1.6-1.9-2.7c0.4,0.2,0.9,0.4,1.4,0.6c0.4,0.1,0.8,0.2,1.4,0.4h0.1c0,0,0,0.1,0,0.1C7.8,13.7,8.1,14.6,8.5,15.3
				 M7.4,8.5L7.4,8.5c0.1,0,0.1,0.3,0.1,0.8c0,0.3-0.1,0.6-0.1,0.8s0,0.4,0.1,0.8c0,0.2,0,0.4,0,0.8c-0.4-0.1-0.7-0.2-0.7-0.2
				c-0.3-0.1-0.6-0.2-0.8-0.2c-0.3-0.1-0.6-0.2-0.8-0.4c-0.3-0.2-0.5-0.3-0.5-0.6c-0.1-0.1-0.1-0.3,0-0.4c0.1-0.1,0.2-0.2,0.3-0.4
				C5,9.4,5.1,9.3,5.2,9.2C5.8,8.9,6.6,8.6,7.4,8.5z"/>
		</g>
	</g>
</g>
</svg>
