
<svg xmlns="http://www.w3.org/2000/svg" version="1.1" xmlns:xlink="http://www.w3.org/1999/xlink" preserveAspectRatio="none" x="0px" y="0px" width="80px" height="80px" viewBox="0 0 80 80">
<defs>
<g id="Layer0_0_FILL">
<path fill="#3366CC" stroke="none" d="
M 71.15 65.1
Q 73.15 62.65 74.7 60.05
L 64.5 65.95 40.05 80
Q 53.85 80 64.3 71.8 66.35 70.15 68.25 68.25 69.8 66.7 71.15 65.1
M 15.7 71.8
Q 26.2 80 40 80
L 40.05 80 15.55 65.9 5.35 60 5.25 60
Q 7.85 64.4 11.7 68.25 13.65 70.2 15.7 71.8
M 40 0
Q 26.75 0 16.6 7.5 14.05 9.35 11.7 11.7 7.85 15.6 5.25 20
L 40 0
M 5.25 20
Q 0 28.95 0 40 0 51.1 5.25 60
L 5.25 20
M 74.75 20.05
L 74.7 20.05 74.7 60.05
Q 80 51.1 80 40 80 28.9 74.75 20.05
M 68.25 11.7
Q 65.9 9.35 63.4 7.5 53.25 0 40 0
L 74.7 20
Q 73.15 17.35 71.15 14.9 69.8 13.25 68.25 11.7 Z"/>

<path fill="#333333" fill-opacity="0.9921568627450981" stroke="none" d="
M 50.7 45.9
Q 54.5 41.75 54.5 36.1 54.5 30.1 50.25 25.85 46 21.6 40 21.6 34 21.6 29.75 25.85 25.5 30.1 25.5 36.1 25.5 41.75 29.3 45.9 25.7 47.65 22.65 50.7 16.25 57.1 15.55 65.9
L 40.05 80 64.5 65.95
Q 63.8 57.15 57.35 50.7 54.3 47.65 50.7 45.9 Z"/>

<path fill="#33CCFF" fill-opacity="0.9921568627450981" stroke="none" d="
M 74.7 20.05
L 74.7 20 40 0 5.25 20 5.25 60 5.35 60 15.55 65.9
Q 16.25 57.1 22.65 50.7 25.7 47.65 29.3 45.9 25.5 41.75 25.5 36.1 25.5 30.1 29.75 25.85 34 21.6 40 21.6 46 21.6 50.25 25.85 54.5 30.1 54.5 36.1 54.5 41.75 50.7 45.9 54.3 47.65 57.35 50.7 63.8 57.15 64.5 65.95
L 74.7 60.05 74.7 20.05 Z"/>

<path fill="#393148" stroke="none" d="
M 74.75 20
L 74.7 20 74.7 20.05 74.75 20.05 74.75 20 Z"/>
</g>

<g id="Layer0_1_FILL">
<path fill="#FFCC00" stroke="none" d="
M 467.2 173.1
Q 468.4572265625 171.8427734375 468.85 170.2
L 457.9 163.95
Q 456.1 165.859765625 456.1 168.5 456.1 171.2 458 173.1 459.9 175 462.6 175 465.3 175 467.2 173.1 Z"/>
</g>

<g id="Layer0_2_FILL">
<path fill="#FFFFFF" stroke="none" d="
M 418.1 180.15
Q 415.688671875 180.15 413.85 181.55
L 413.85 192.45
Q 413.8751953125 192.4640625 413.9 192.45 415.7 193.9 418.1 193.9 420.7 193.9 422.6 192.2 423.95 193.3 425.65 193.3 427.65 193.3 429.05 191.9 430.45 190.5 430.45 188.55 430.45 186.55 429.05 185.15 427.65 183.75 425.65 183.75 424.95 183.75 424.3 183.95 423.8 183 422.95 182.15 420.95 180.15 418.1 180.15 Z"/>
</g>

<g id="Layer0_3_FILL">
<path fill="#CCCCCC" fill-opacity="0.9921568627450981" stroke="none" d="
M 434.45 214.15
Q 433.8 215.05 432.3 217.65 429.9 221.95 427.4 226.2
L 427.4 226.3
Q 432.3 228.4 437.1 230.55 437.5 230.75 437.8 230.9
L 440.45 217.05 434.45 214.15
M 436.95 227.85
L 436.9 227.85 436.95 227.8 436.95 227.85
M 469.05 226.2
L 468.35 226.6
Q 468.7 226.5 469.1 226.3
L 469.1 226.2 469.05 226.2
M 448.25 212.45
L 448.2 212.45 448.25 226.3
Q 451.35 227.65 454.4 229 456.2 229.75 457.95 230.55 458.35 230.75 458.7 230.9
L 456.45 219.05 456.45 219 456.05 217
Q 455.25 216.55 454.4 216.05 453.65 215.65 452.9 215.2 450.55 213.85 448.25 212.45
M 449.55 216.05
L 449.6 216.05 449.55 216.1 449.55 216.05 Z"/>

<path fill="#999999" fill-opacity="0.9921568627450981" stroke="none" d="
M 446.3 227.2
Q 446.95 226.95 447.55 226.6 447.9 226.5 448.25 226.3
L 448.2 212.45
Q 444.3 214.75 440.5 217.05
L 440.45 217.05 437.8 230.9
Q 442.1 229.05 446.3 227.2
M 439.8 227.3
L 439.75 227.3 439.75 227.2 439.8 227.3
M 462.8 221.5
Q 462.45 222 462.05 222.6 461.4 223.6 460.95 224.25
L 457.8 218.75
Q 457.4 217.7 456.8 216.55 456.75 216.55 456.7 216.55 456.45 216.65 456.05 217
L 456.45 219 456.45 219.05 458.7 230.9
Q 463.55 228.8 468.35 226.6
L 469.05 226.2
Q 466.9 222.35 464.7 218.6
L 464.65 218.6
Q 464.05 219.6 462.8 221.5 Z"/>
</g>

<g id="Layer0_3_MEMBER_0_FILL">
<path fill="#990000" fill-opacity="0.9921568627450981" stroke="none" d="
M 466.55 214.6
Q 467.1 213.55 467 212.1 466.9 207.55 463.1 206.4 462.45 206.1 461.65 206.1 456.1 206.2 455.3 211.15 455.2 211.95 455.4 212.65 455.75 214.6 456.55 216.15 457.55 217.9 458.5 219.6 458.75 220 458.95 220.4 460.05 222.55 461.3 224.65 461.55 223.9 461.9 223.2 462.7 221.85 463.45 220.4 464.95 217.55 466.55 214.6
M 461.75 209.5
Q 462 209.5 462.3 209.6 464 210.4 463.65 212.6 463.6 213.05 463.25 213.45 462.85 214.05 462.15 214.25 461.45 214.5 460.5 214.3 459.55 214.1 459.1 213.4 458.55 212.75 458.55 211.5 459.1 209.2 461.75 209.5 Z"/>

<path fill="#FFFFFF" fill-opacity="0.9921568627450981" stroke="none" d="
M 462.3 209.6
Q 462 209.5 461.75 209.5 459.1 209.2 458.55 211.5 458.55 212.75 459.1 213.4 459.55 214.1 460.5 214.3 461.45 214.5 462.15 214.25 462.85 214.05 463.25 213.45 463.6 213.05 463.65 212.6 464 210.4 462.3 209.6 Z"/>
</g>
</defs>

<g transform="matrix( 1, 0, 0, 1, 0,0) ">
<use xlink:href="#Layer0_0_FILL"/>
</g>

<g transform="matrix( 1, 0, 0, 1, -408.6,-158.55) ">
<use xlink:href="#Layer0_1_FILL"/>
</g>

<g transform="matrix( 1, 0, 0, 1, -408.6,-158.55) ">
<use xlink:href="#Layer0_2_FILL"/>
</g>

<g transform="matrix( 1, 0, 0, 1, -408.6,-158.55) ">
<use xlink:href="#Layer0_3_FILL"/>
</g>

<g transform="matrix( 1, 0, 0, 1, -408.6,-158.55) ">
<use xlink:href="#Layer0_3_MEMBER_0_FILL"/>
</g>
</svg>
