
<svg xmlns="http://www.w3.org/2000/svg" version="1.1" xmlns:xlink="http://www.w3.org/1999/xlink" preserveAspectRatio="none" x="0px" y="0px" width="80px" height="80px" viewBox="0 0 80 80">
<defs>
<g id="Layer0_0_FILL">
<path fill="#00CCFF" stroke="none" d="
M 74.7 21.45
Q 74.7 21.2 74.7 20.95 74.7 20.15 74.2 19.65 74.15 19.6 74.1 19.55
L 73.85 19.35
Q 73.7 19.2 73.45 19.15
L 73.4 19.15 40.7 0.3
Q 40.25 0 39.75 0 39.2 0 38.8 0.3
L 5.7 19.35
Q 5.25 19.6 5.05 20 4.75 20.45 4.75 20.95
L 4.75 59.05
Q 4.75 59.85 5.3 60.45 5.65 60.75 6.15 60.9
L 15.35 66.25
Q 15.4 66.25 15.45 66.3
L 15.5 66.35
Q 15.6 66.4 15.75 66.45
L 38.85 79.75
Q 39.25 80 39.8 80 40.3 80 40.75 79.75
L 63.75 66.5
Q 64 66.4 64.2 66.3
L 73.7 60.75
Q 74.15 60.5 74.45 60.05 74.7 59.65 74.7 59.1
L 74.7 21.45
M 51.65 36.3
Q 51.65 40.9 48.55 44.35 48.1 44.75 48.05 45.4 47.95 46 48.25 46.55 48.55 47.05 49.1 47.35 52.25 48.85 54.9 51.6 60.1 56.75 61.05 63.7
L 39.8 75.9 18.5 63.7
Q 19.4 56.7 24.6 51.6 27.2 48.85 30.4 47.35 30.95 47.05 31.2 46.55 31.5 46 31.45 45.4 31.35 44.75 30.95 44.35 27.85 40.9 27.85 36.3 27.85 31.4 31.35 27.9 34.85 24.4 39.75 24.4 44.65 24.4 48.15 27.9 51.65 31.4 51.65 36.3
M 55.45 36.3
Q 55.45 29.75 50.85 25.2 46.25 20.6 39.75 20.6 33.2 20.6 28.65 25.2 24 29.75 24 36.3 24 41.2 26.65 45.05 24.1 46.6 21.9 48.85 16.35 54.35 15 61.65
L 8.55 57.9 8.55 22.05 39.75 4.1 70.85 22.05 70.85 58 64.6 61.7
Q 63.15 54.4 57.65 48.85 55.35 46.6 52.8 45.05 55.45 41.2 55.45 36.3 Z"/>
</g>
</defs>

<g transform="matrix( 1, 0, 0, 1, 0,0) ">
<use xlink:href="#Layer0_0_FILL"/>
</g>
</svg>
